<svg width="46.000000" height="46.000000" viewBox="0 0 46 46" fill="none" xmlns="http://www.w3.org/2000/svg" xmlns:xlink="http://www.w3.org/1999/xlink">
	<desc>
			Created with Pixso.
	</desc>
	<defs>
		<filter id="filter_20_1077_dd" x="3.833984" y="3.832031" width="38.333984" height="38.333984" filterUnits="userSpaceOnUse" color-interpolation-filters="sRGB">
			<feFlood flood-opacity="0" result="BackgroundImageFix"/>
			<feBlend mode="normal" in="SourceGraphic" in2="BackgroundImageFix" result="shape"/>
			<feColorMatrix in="SourceAlpha" type="matrix" values="0 0 0 0 0 0 0 0 0 0 0 0 0 0 0 0 0 0 127 0" result="hardAlpha"/>
			<feOffset dx="1" dy="1"/>
			<feGaussianBlur stdDeviation="0.666667"/>
			<feComposite in2="hardAlpha" operator="arithmetic" k2="-1" k3="1"/>
			<feColorMatrix type="matrix" values="0 0 0 0 0.53333 0 0 0 0 0.64706 0 0 0 0 0.74902 0 0 0 0.6 0"/>
			<feBlend mode="normal" in2="shape" result="effect_innerShadow_1"/>
			<feColorMatrix in="SourceAlpha" type="matrix" values="0 0 0 0 0 0 0 0 0 0 0 0 0 0 0 0 0 0 127 0" result="hardAlpha"/>
			<feOffset dx="-1" dy="-2"/>
			<feGaussianBlur stdDeviation="0.666667"/>
			<feComposite in2="hardAlpha" operator="arithmetic" k2="-1" k3="1"/>
			<feColorMatrix type="matrix" values="0 0 0 0 0.53333 0 0 0 0 0.64706 0 0 0 0 0.74902 0 0 0 0.3 0"/>
			<feBlend mode="normal" in2="effect_innerShadow_1" result="effect_innerShadow_2"/>
			<feColorMatrix in="SourceAlpha" type="matrix" values="0 0 0 0 0 0 0 0 0 0 0 0 0 0 0 0 0 0 127 0" result="hardAlpha"/>
			<feOffset dx="-1" dy="-2"/>
			<feGaussianBlur stdDeviation="1"/>
			<feComposite in2="hardAlpha" operator="arithmetic" k2="-1" k3="1"/>
			<feColorMatrix type="matrix" values="0 0 0 0 1 0 0 0 0 1 0 0 0 0 1 0 0 0 0.4 0"/>
			<feBlend mode="normal" in2="effect_innerShadow_2" result="effect_innerShadow_3"/>
		</filter>
		<filter id="filter_20_1080_dd" x="4.066406" y="3.832031" width="37.869141" height="8.625000" filterUnits="userSpaceOnUse" color-interpolation-filters="sRGB">
			<feFlood flood-opacity="0" result="BackgroundImageFix"/>
			<feBlend mode="normal" in="SourceGraphic" in2="BackgroundImageFix" result="shape"/>
			<feColorMatrix in="SourceAlpha" type="matrix" values="0 0 0 0 0 0 0 0 0 0 0 0 0 0 0 0 0 0 127 0" result="hardAlpha"/>
			<feOffset dx="1.35294" dy="1.35294"/>
			<feGaussianBlur stdDeviation="0.45098"/>
			<feComposite in2="hardAlpha" operator="arithmetic" k2="-1" k3="1"/>
			<feColorMatrix type="matrix" values="0 0 0 0 0 0 0 0 0 0.36863 0 0 0 0 0.74118 0 0 0 0.5 0"/>
			<feBlend mode="normal" in2="shape" result="effect_innerShadow_1"/>
		</filter>
		<filter id="filter_20_1083_dd" x="13.414062" y="19.167969" width="19.166016" height="17.250000" filterUnits="userSpaceOnUse" color-interpolation-filters="sRGB">
			<feFlood flood-opacity="0" result="BackgroundImageFix"/>
			<feBlend mode="normal" in="SourceGraphic" in2="BackgroundImageFix" result="shape"/>
			<feColorMatrix in="SourceAlpha" type="matrix" values="0 0 0 0 0 0 0 0 0 0 0 0 0 0 0 0 0 0 127 0" result="hardAlpha"/>
			<feOffset dx="1.35294" dy="1.35294"/>
			<feGaussianBlur stdDeviation="1.35294"/>
			<feComposite in2="hardAlpha" operator="arithmetic" k2="-1" k3="1"/>
			<feColorMatrix type="matrix" values="0 0 0 0 0 0 0 0 0 0.36863 0 0 0 0 0.74118 0 0 0 0.4 0"/>
			<feBlend mode="normal" in2="shape" result="effect_innerShadow_1"/>
		</filter>
		<filter id="filter_20_1084_dd" x="10.542969" y="20.261719" width="24.916016" height="13.228516" filterUnits="userSpaceOnUse" color-interpolation-filters="sRGB">
			<feFlood flood-opacity="0" result="BackgroundImageFix"/>
			<feBlend mode="normal" in="SourceGraphic" in2="BackgroundImageFix" result="shape"/>
			<feColorMatrix in="SourceAlpha" type="matrix" values="0 0 0 0 0 0 0 0 0 0 0 0 0 0 0 0 0 0 127 0" result="hardAlpha"/>
			<feOffset dx="1.35294" dy="1.35294"/>
			<feGaussianBlur stdDeviation="0.45098"/>
			<feComposite in2="hardAlpha" operator="arithmetic" k2="-1" k3="1"/>
			<feColorMatrix type="matrix" values="0 0 0 0 0 0 0 0 0 0.36863 0 0 0 0 0.74118 0 0 0 0.5 0"/>
			<feBlend mode="normal" in2="shape" result="effect_innerShadow_1"/>
		</filter>
		<linearGradient x1="-39.319244" y1="3.832001" x2="-4.625847" y2="12.457672" id="paint_linear_20_1080_0" gradientUnits="userSpaceOnUse">
			<stop stop-color="#0050EC"/>
			<stop offset="1.000000" stop-color="#39C7EC"/>
		</linearGradient>
		<linearGradient x1="11.717427" y1="20.124996" x2="34.544727" y2="33.541668" id="paint_linear_20_1084_0" gradientUnits="userSpaceOnUse">
			<stop stop-color="#0050EC"/>
			<stop offset="1.000000" stop-color="#39C7EC"/>
		</linearGradient>
	</defs>
	<rect id="Component 35" width="38.333336" height="38.333336" transform="translate(3.833984 3.832031)" fill="#FFFFFF" fill-opacity="0"/>
	<g filter="url(#filter_20_1077_dd)">
		<path id="Rectangle 56" d="M7.24 5.02C9.79 4.48 14.61 3.83 23 3.83C31.38 3.83 36.2 4.48 38.75 5.02C40.37 5.37 41.45 6.67 41.62 8.32C41.88 10.76 42.16 15.24 42.16 22.99C42.16 30.75 41.88 35.23 41.62 37.67C41.45 39.32 40.37 40.62 38.75 40.96C36.2 41.51 31.38 42.16 23 42.16C14.61 42.16 9.79 41.51 7.24 40.96C5.62 40.62 4.54 39.32 4.37 37.67C4.12 35.23 3.83 30.75 3.83 22.99C3.83 15.24 4.12 10.76 4.37 8.32C4.54 6.67 5.62 5.37 7.24 5.02Z" fill="#D0E2F3" fill-opacity="1.000000" fill-rule="nonzero"/>
	</g>
	<g filter="url(#filter_20_1080_dd)">
		<path id="Intersect" d="M41.9355 12.457L4.06641 12.457C4.16016 10.6758 4.26953 9.32812 4.37305 8.32227C4.54297 6.67773 5.625 5.37305 7.24414 5.02734C9.79883 4.48438 14.6133 3.83203 23 3.83203C31.3887 3.83203 36.2031 4.48438 38.7578 5.02734C40.377 5.37305 41.459 6.67773 41.6289 8.32227C41.7324 9.32812 41.8418 10.6758 41.9355 12.457Z" clip-rule="evenodd" fill="url(#paint_linear_20_1080_0)" fill-opacity="1.000000" fill-rule="evenodd"/>
	</g>
	<g filter="url(#filter_20_1083_dd)">
		<rect id="Vector 9" width="19.166668" height="17.250000" transform="translate(13.414062 19.167969)" fill="#FFFFFF" fill-opacity="0"/>
	</g>
	<g filter="url(#filter_20_1084_dd)">
		<path id="&lt;&gt;" d="M24.65 20.99C24.48 21.21 24.36 21.49 24.28 21.79C24 22.83 24.83 23.71 25.81 24.16L31.24 26.65L26.11 28.79C25.11 29.31 24.3 29.98 24.3 31.26C24.3 31.7 24.42 32.06 24.61 32.36C25.41 33.59 27.22 33.16 28.51 32.48L34.22 29.47C35.21 28.94 35.45 27.83 35.45 26.73Q35.45 26.06 35.32 25.51C35.12 24.65 34.37 24.08 33.58 23.68L28.62 21.12C28.17 20.89 27.74 20.69 27.34 20.53C26.47 20.11 25.28 20.11 24.65 20.99ZM21.35 32.75C21.51 32.52 21.64 32.24 21.72 31.93C21.99 30.9 21.17 30.03 20.21 29.58L14.75 27L19.99 24.86C20.98 24.35 21.79 23.67 21.79 22.4C21.79 21.96 21.67 21.6 21.47 21.29C20.66 20.09 18.88 20.49 17.59 21.16L11.77 24.19C10.78 24.68 10.54 25.85 10.54 26.92Q10.54 27.61 10.67 28.17C10.88 29.01 11.62 29.57 12.39 29.98L17.37 32.59C17.91 32.88 18.35 33.1 18.7 33.27C19.57 33.62 20.73 33.6 21.35 32.75Z" fill="url(#paint_linear_20_1084_0)" fill-opacity="1.000000" fill-rule="evenodd"/>
	</g>
</svg>
