<svg width="46.000000" height="46.000000" viewBox="0 0 46 46" fill="none" xmlns="http://www.w3.org/2000/svg" xmlns:xlink="http://www.w3.org/1999/xlink">
	<desc>
			Created with Pixso.
	</desc>
	<defs>
		<filter id="filter_26_2426_dd" x="3.835938" y="3.833984" width="38.333984" height="38.333984" filterUnits="userSpaceOnUse" color-interpolation-filters="sRGB">
			<feFlood flood-opacity="0" result="BackgroundImageFix"/>
			<feBlend mode="normal" in="SourceGraphic" in2="BackgroundImageFix" result="shape"/>
			<feColorMatrix in="SourceAlpha" type="matrix" values="0 0 0 0 0 0 0 0 0 0 0 0 0 0 0 0 0 0 127 0" result="hardAlpha"/>
			<feOffset dx="1" dy="1"/>
			<feGaussianBlur stdDeviation="0.666667"/>
			<feComposite in2="hardAlpha" operator="arithmetic" k2="-1" k3="1"/>
			<feColorMatrix type="matrix" values="0 0 0 0 0.53333 0 0 0 0 0.64706 0 0 0 0 0.74902 0 0 0 0.6 0"/>
			<feBlend mode="normal" in2="shape" result="effect_innerShadow_1"/>
			<feColorMatrix in="SourceAlpha" type="matrix" values="0 0 0 0 0 0 0 0 0 0 0 0 0 0 0 0 0 0 127 0" result="hardAlpha"/>
			<feOffset dx="-1" dy="-2"/>
			<feGaussianBlur stdDeviation="0.666667"/>
			<feComposite in2="hardAlpha" operator="arithmetic" k2="-1" k3="1"/>
			<feColorMatrix type="matrix" values="0 0 0 0 0.53333 0 0 0 0 0.64706 0 0 0 0 0.74902 0 0 0 0.3 0"/>
			<feBlend mode="normal" in2="effect_innerShadow_1" result="effect_innerShadow_2"/>
			<feColorMatrix in="SourceAlpha" type="matrix" values="0 0 0 0 0 0 0 0 0 0 0 0 0 0 0 0 0 0 127 0" result="hardAlpha"/>
			<feOffset dx="-1" dy="-2"/>
			<feGaussianBlur stdDeviation="1"/>
			<feComposite in2="hardAlpha" operator="arithmetic" k2="-1" k3="1"/>
			<feColorMatrix type="matrix" values="0 0 0 0 1 0 0 0 0 1 0 0 0 0 1 0 0 0 0.4 0"/>
			<feBlend mode="normal" in2="effect_innerShadow_2" result="effect_innerShadow_3"/>
		</filter>
		<filter id="filter_26_2427_dd" x="3.859375" y="12.457031" width="32.558594" height="20.833984" filterUnits="userSpaceOnUse" color-interpolation-filters="sRGB">
			<feFlood flood-opacity="0" result="BackgroundImageFix"/>
			<feBlend mode="normal" in="SourceGraphic" in2="BackgroundImageFix" result="shape"/>
			<feColorMatrix in="SourceAlpha" type="matrix" values="0 0 0 0 0 0 0 0 0 0 0 0 0 0 0 0 0 0 127 0" result="hardAlpha"/>
			<feOffset dx="1.35294" dy="1.35294"/>
			<feGaussianBlur stdDeviation="1.35294"/>
			<feComposite in2="hardAlpha" operator="arithmetic" k2="-1" k3="1"/>
			<feColorMatrix type="matrix" values="0 0 0 0 0 0 0 0 0 0.36863 0 0 0 0 0.74118 0 0 0 0.4 0"/>
			<feBlend mode="normal" in2="shape" result="effect_innerShadow_1"/>
		</filter>
		<linearGradient x1="5.394081" y1="12.457024" x2="35.223244" y2="33.290878" id="paint_linear_26_2427_0" gradientUnits="userSpaceOnUse">
			<stop stop-color="#0050EC"/>
			<stop offset="1.000000" stop-color="#39C7EC"/>
		</linearGradient>
	</defs>
	<g filter="url(#filter_26_2426_dd)">
		<path d="M7.24 40.97C9.8 41.51 14.61 42.16 23 42.16C31.39 42.16 36.2 41.51 38.75 40.97C40.37 40.62 41.46 39.32 41.63 37.67C41.88 35.23 42.16 30.75 42.16 23C42.16 15.24 41.88 10.76 41.63 8.32C41.46 6.67 40.37 5.37 38.75 5.03C36.2 4.48 31.39 3.83 23 3.83C14.61 3.83 9.8 4.48 7.24 5.03C5.62 5.37 4.54 6.67 4.37 8.32C4.12 10.76 3.83 15.24 3.83 23C3.83 30.75 4.12 35.23 4.37 37.67C4.54 39.32 5.62 40.62 7.24 40.97Z" fill="#D0E2F3" fill-opacity="1.000000" fill-rule="nonzero"/>
	</g>
	<g filter="url(#filter_26_2427_dd)">
		<path d="M11.89 26.04C9.8 27.76 7.05 30.21 4.05 33.29C3.96 31.54 3.89 29.39 3.85 26.75C5.72 24.99 7.42 23.52 8.83 22.35C10.09 21.3 11.12 20.5 11.84 19.96C12.21 19.68 12.49 19.48 12.69 19.33C12.79 19.26 12.86 19.21 12.92 19.17L12.98 19.13L13 19.11L13.01 19.11C14.07 18.37 15.52 18.61 16.29 19.64L20.28 24.97C22.77 22.23 24.79 20.23 26.27 18.85C27.12 18.05 27.8 17.46 28.29 17.04C27.35 17.07 26.3 17.08 25.25 17.07C24.08 17.05 23.02 16.39 23 15.22C23 15.16 23 15.09 23 15.02C23 14.79 23.02 14.58 23.05 14.39C23.18 13.4 24.09 12.82 25.09 12.7C28.88 12.25 32.13 12.5 34.03 12.74C35.14 12.88 35.99 13.73 36.13 14.83C36.37 16.74 36.61 19.98 36.16 23.78C36.05 24.77 35.47 25.68 34.48 25.82C34.29 25.85 34.08 25.86 33.85 25.87C33.78 25.87 33.71 25.87 33.64 25.87C32.48 25.85 31.82 24.78 31.8 23.62C31.78 22.48 31.8 21.34 31.83 20.33C31.74 20.41 31.63 20.5 31.5 20.61C31.07 20.97 30.41 21.54 29.54 22.35C27.81 23.97 25.23 26.55 21.92 30.32C21.45 30.86 20.75 31.16 20.03 31.14C19.31 31.11 18.64 30.76 18.2 30.18L18.2 30.17L18.19 30.17L18.19 30.16L18.19 30.16L13.89 24.43C13.33 24.86 12.65 25.4 11.89 26.04Z" fill="url(#paint_linear_26_2427_0)" fill-opacity="1.000000" fill-rule="evenodd"/>
	</g>
</svg>
