<svg width="46.000000" height="46.000000" viewBox="0 0 46 46" fill="none" xmlns="http://www.w3.org/2000/svg" xmlns:xlink="http://www.w3.org/1999/xlink">
	<desc>
			Created with Pixso.
	</desc>
	<defs>
		<filter id="filter_5504_28847_dd" x="3.828125" y="3.832031" width="38.333984" height="38.333984" filterUnits="userSpaceOnUse" color-interpolation-filters="sRGB">
			<feFlood flood-opacity="0" result="BackgroundImageFix"/>
			<feBlend mode="normal" in="SourceGraphic" in2="BackgroundImageFix" result="shape"/>
			<feColorMatrix in="SourceAlpha" type="matrix" values="0 0 0 0 0 0 0 0 0 0 0 0 0 0 0 0 0 0 127 0" result="hardAlpha"/>
			<feOffset dx="1" dy="1"/>
			<feGaussianBlur stdDeviation="0.666667"/>
			<feComposite in2="hardAlpha" operator="arithmetic" k2="-1" k3="1"/>
			<feColorMatrix type="matrix" values="0 0 0 0 0.53333 0 0 0 0 0.64706 0 0 0 0 0.74902 0 0 0 0.6 0"/>
			<feBlend mode="normal" in2="shape" result="effect_innerShadow_1"/>
			<feColorMatrix in="SourceAlpha" type="matrix" values="0 0 0 0 0 0 0 0 0 0 0 0 0 0 0 0 0 0 127 0" result="hardAlpha"/>
			<feOffset dx="-1" dy="-2"/>
			<feGaussianBlur stdDeviation="0.666667"/>
			<feComposite in2="hardAlpha" operator="arithmetic" k2="-1" k3="1"/>
			<feColorMatrix type="matrix" values="0 0 0 0 0.53333 0 0 0 0 0.64706 0 0 0 0 0.74902 0 0 0 0.3 0"/>
			<feBlend mode="normal" in2="effect_innerShadow_1" result="effect_innerShadow_2"/>
			<feColorMatrix in="SourceAlpha" type="matrix" values="0 0 0 0 0 0 0 0 0 0 0 0 0 0 0 0 0 0 127 0" result="hardAlpha"/>
			<feOffset dx="-1" dy="-2"/>
			<feGaussianBlur stdDeviation="1"/>
			<feComposite in2="hardAlpha" operator="arithmetic" k2="-1" k3="1"/>
			<feColorMatrix type="matrix" values="0 0 0 0 1 0 0 0 0 1 0 0 0 0 1 0 0 0 0.4 0"/>
			<feBlend mode="normal" in2="effect_innerShadow_2" result="effect_innerShadow_3"/>
		</filter>
		<filter id="filter_5504_28848_dd" x="24.912109" y="24.916016" width="17.250000" height="17.250000" filterUnits="userSpaceOnUse" color-interpolation-filters="sRGB">
			<feFlood flood-opacity="0" result="BackgroundImageFix"/>
			<feBlend mode="normal" in="SourceGraphic" in2="BackgroundImageFix" result="shape"/>
			<feColorMatrix in="SourceAlpha" type="matrix" values="0 0 0 0 0 0 0 0 0 0 0 0 0 0 0 0 0 0 127 0" result="hardAlpha"/>
			<feOffset dx="1.35294" dy="1.35294"/>
			<feGaussianBlur stdDeviation="0.45098"/>
			<feComposite in2="hardAlpha" operator="arithmetic" k2="-1" k3="1"/>
			<feColorMatrix type="matrix" values="0 0 0 0 0 0 0 0 0 0.36863 0 0 0 0 0.74118 0 0 0 0.5 0"/>
			<feBlend mode="normal" in2="shape" result="effect_innerShadow_1"/>
		</filter>
		<linearGradient x1="25.725193" y1="24.916016" x2="41.528713" y2="42.166016" id="paint_linear_5504_28848_0" gradientUnits="userSpaceOnUse">
			<stop stop-color="#0050EC"/>
			<stop offset="1.000000" stop-color="#39C7EC"/>
		</linearGradient>
	</defs>
	<g filter="url(#filter_5504_28847_dd)">
		<path d="M3.95 7.27C4.05 5.62 5.13 4.34 6.77 4.13C8.03 3.96 9.86 3.83 12.45 3.83C15.03 3.83 16.86 3.96 18.13 4.13C19.77 4.34 20.84 5.62 20.94 7.27C21.02 8.46 21.07 10.13 21.07 12.45C21.07 14.78 21.02 16.45 20.94 17.63C20.84 19.28 19.77 20.56 18.13 20.77C16.86 20.94 15.03 21.08 12.45 21.08C9.86 21.08 8.03 20.94 6.77 20.77C5.13 20.56 4.05 19.28 3.95 17.63C3.88 16.45 3.82 14.78 3.82 12.45C3.82 10.13 3.88 8.46 3.95 7.27ZM41.85 6.77C41.64 5.13 40.36 4.06 38.71 3.96C37.53 3.88 35.86 3.83 33.53 3.83C31.21 3.83 29.54 3.88 28.35 3.96C26.7 4.06 25.42 5.13 25.21 6.77C25.05 8.04 24.91 9.87 24.91 12.45C24.91 15.04 25.05 16.87 25.21 18.13C25.42 19.77 26.7 20.85 28.35 20.95C29.54 21.02 31.21 21.08 33.53 21.08C35.86 21.08 37.53 21.02 38.71 20.95C40.36 20.85 41.64 19.77 41.85 18.13C42.02 16.87 42.16 15.04 42.16 12.45C42.16 9.87 42.02 8.04 41.85 6.77ZM3.95 38.71C4.05 40.37 5.13 41.64 6.77 41.86C8.03 42.02 9.86 42.16 12.45 42.16C15.03 42.16 16.86 42.02 18.13 41.86C19.77 41.64 20.84 40.37 20.94 38.71C21.02 37.53 21.07 35.86 21.07 33.54C21.07 31.21 21.02 29.54 20.94 28.36C20.84 26.71 19.77 25.43 18.13 25.21C16.86 25.05 15.03 24.91 12.45 24.91C9.86 24.91 8.03 25.05 6.77 25.21C5.13 25.43 4.05 26.71 3.95 28.36C3.88 29.54 3.82 31.21 3.82 33.54C3.82 35.86 3.88 37.53 3.95 38.71Z" fill="#D0E2F3" fill-opacity="1.000000" fill-rule="evenodd"/>
	</g>
	<g filter="url(#filter_5504_28848_dd)">
		<path d="M32.37 42.11C31.39 42.01 30.79 41.18 30.75 40.2C30.72 39.36 30.69 38.14 30.67 36.4C28.93 36.38 27.7 36.35 26.87 36.32C25.89 36.28 25.06 35.67 24.96 34.7C24.93 34.37 24.91 33.99 24.91 33.54C24.91 33.09 24.93 32.7 24.96 32.37C25.06 31.4 25.89 30.79 26.87 30.76C27.7 30.73 28.93 30.69 30.67 30.67C30.69 28.93 30.72 27.71 30.75 26.87C30.79 25.89 31.39 25.06 32.37 24.97C32.7 24.93 33.08 24.91 33.53 24.91C33.98 24.91 34.37 24.93 34.7 24.97C35.67 25.06 36.27 25.89 36.31 26.87C36.34 27.71 36.38 28.93 36.39 30.67C38.13 30.69 39.36 30.73 40.2 30.76C41.18 30.79 42 31.4 42.1 32.37C42.14 32.7 42.16 33.09 42.16 33.54C42.16 33.99 42.14 34.37 42.1 34.7C42 35.67 41.18 36.28 40.2 36.32C39.36 36.35 38.13 36.38 36.39 36.4C36.38 38.14 36.34 39.36 36.31 40.2C36.27 41.18 35.67 42.01 34.7 42.11C34.37 42.14 33.98 42.16 33.53 42.16C33.08 42.16 32.7 42.14 32.37 42.11Z" fill="url(#paint_linear_5504_28848_0)" fill-opacity="1.000000" fill-rule="nonzero"/>
	</g>
</svg>
