<svg width="46.000000" height="46.000000" viewBox="0 0 46 46" fill="none" xmlns="http://www.w3.org/2000/svg" xmlns:xlink="http://www.w3.org/1999/xlink">
	<desc>
			Created with Pixso.
	</desc>
	<defs>
		<filter id="filter_26_417_dd" x="2.875000" y="5.750000" width="40.250000" height="35.458984" filterUnits="userSpaceOnUse" color-interpolation-filters="sRGB">
			<feFlood flood-opacity="0" result="BackgroundImageFix"/>
			<feBlend mode="normal" in="SourceGraphic" in2="BackgroundImageFix" result="shape"/>
			<feColorMatrix in="SourceAlpha" type="matrix" values="0 0 0 0 0 0 0 0 0 0 0 0 0 0 0 0 0 0 127 0" result="hardAlpha"/>
			<feOffset dx="1.35294" dy="1.35294"/>
			<feGaussianBlur stdDeviation="0.45098"/>
			<feComposite in2="hardAlpha" operator="arithmetic" k2="-1" k3="1"/>
			<feColorMatrix type="matrix" values="0 0 0 0 0 0 0 0 0 0.36863 0 0 0 0 0.74118 0 0 0 0.5 0"/>
			<feBlend mode="normal" in2="shape" result="effect_innerShadow_1"/>
		</filter>
		<filter id="filter_26_418_dd" x="7.666016" y="27.792969" width="9.583984" height="9.583984" filterUnits="userSpaceOnUse" color-interpolation-filters="sRGB">
			<feFlood flood-opacity="0" result="BackgroundImageFix"/>
			<feBlend mode="normal" in="SourceGraphic" in2="BackgroundImageFix" result="shape"/>
			<feColorMatrix in="SourceAlpha" type="matrix" values="0 0 0 0 0 0 0 0 0 0 0 0 0 0 0 0 0 0 127 0" result="hardAlpha"/>
			<feOffset dx="1" dy="1"/>
			<feGaussianBlur stdDeviation="0.666667"/>
			<feComposite in2="hardAlpha" operator="arithmetic" k2="-1" k3="1"/>
			<feColorMatrix type="matrix" values="0 0 0 0 0.53333 0 0 0 0 0.64706 0 0 0 0 0.74902 0 0 0 0.6 0"/>
			<feBlend mode="normal" in2="shape" result="effect_innerShadow_1"/>
			<feColorMatrix in="SourceAlpha" type="matrix" values="0 0 0 0 0 0 0 0 0 0 0 0 0 0 0 0 0 0 127 0" result="hardAlpha"/>
			<feOffset dx="-1" dy="-2"/>
			<feGaussianBlur stdDeviation="0.666667"/>
			<feComposite in2="hardAlpha" operator="arithmetic" k2="-1" k3="1"/>
			<feColorMatrix type="matrix" values="0 0 0 0 0.53333 0 0 0 0 0.64706 0 0 0 0 0.74902 0 0 0 0.3 0"/>
			<feBlend mode="normal" in2="effect_innerShadow_1" result="effect_innerShadow_2"/>
			<feColorMatrix in="SourceAlpha" type="matrix" values="0 0 0 0 0 0 0 0 0 0 0 0 0 0 0 0 0 0 127 0" result="hardAlpha"/>
			<feOffset dx="-1" dy="-2"/>
			<feGaussianBlur stdDeviation="1"/>
			<feComposite in2="hardAlpha" operator="arithmetic" k2="-1" k3="1"/>
			<feColorMatrix type="matrix" values="0 0 0 0 1 0 0 0 0 1 0 0 0 0 1 0 0 0 0.4 0"/>
			<feBlend mode="normal" in2="effect_innerShadow_2" result="effect_innerShadow_3"/>
		</filter>
		<filter id="filter_26_419_dd" x="28.750000" y="27.792969" width="9.583984" height="9.583984" filterUnits="userSpaceOnUse" color-interpolation-filters="sRGB">
			<feFlood flood-opacity="0" result="BackgroundImageFix"/>
			<feBlend mode="normal" in="SourceGraphic" in2="BackgroundImageFix" result="shape"/>
			<feColorMatrix in="SourceAlpha" type="matrix" values="0 0 0 0 0 0 0 0 0 0 0 0 0 0 0 0 0 0 127 0" result="hardAlpha"/>
			<feOffset dx="1" dy="1"/>
			<feGaussianBlur stdDeviation="0.666667"/>
			<feComposite in2="hardAlpha" operator="arithmetic" k2="-1" k3="1"/>
			<feColorMatrix type="matrix" values="0 0 0 0 0.53333 0 0 0 0 0.64706 0 0 0 0 0.74902 0 0 0 0.6 0"/>
			<feBlend mode="normal" in2="shape" result="effect_innerShadow_1"/>
			<feColorMatrix in="SourceAlpha" type="matrix" values="0 0 0 0 0 0 0 0 0 0 0 0 0 0 0 0 0 0 127 0" result="hardAlpha"/>
			<feOffset dx="-1" dy="-2"/>
			<feGaussianBlur stdDeviation="0.666667"/>
			<feComposite in2="hardAlpha" operator="arithmetic" k2="-1" k3="1"/>
			<feColorMatrix type="matrix" values="0 0 0 0 0.53333 0 0 0 0 0.64706 0 0 0 0 0.74902 0 0 0 0.3 0"/>
			<feBlend mode="normal" in2="effect_innerShadow_1" result="effect_innerShadow_2"/>
			<feColorMatrix in="SourceAlpha" type="matrix" values="0 0 0 0 0 0 0 0 0 0 0 0 0 0 0 0 0 0 127 0" result="hardAlpha"/>
			<feOffset dx="-1" dy="-2"/>
			<feGaussianBlur stdDeviation="1"/>
			<feComposite in2="hardAlpha" operator="arithmetic" k2="-1" k3="1"/>
			<feColorMatrix type="matrix" values="0 0 0 0 1 0 0 0 0 1 0 0 0 0 1 0 0 0 0.4 0"/>
			<feBlend mode="normal" in2="effect_innerShadow_2" result="effect_innerShadow_3"/>
		</filter>
	</defs>
	<g filter="url(#filter_26_417_dd)">
		<path id="Union" d="M7.46 6.88L9.52 5.94C10.29 5.59 11.23 5.7 11.71 6.35C11.93 6.67 12.16 7.06 12.35 7.52C12.68 8.29 12.17 9.1 11.36 9.47L9.38 10.36C8.08 10.95 7.27 12.06 7.21 13.27C7.08 15.76 7.02 19.95 7.26 25.69C8.71 24.6 10.5 23.95 12.45 23.95C15.63 23.95 18.41 25.67 19.91 28.24C20.89 27.94 21.92 27.79 23 27.79C24.07 27.79 25.1 27.94 26.08 28.24C27.58 25.67 30.36 23.95 33.54 23.95C35.49 23.95 37.28 24.6 38.73 25.69C38.97 19.95 38.91 15.76 38.78 13.27C38.72 12.06 37.91 10.95 36.61 10.36L34.63 9.47C33.82 9.1 33.31 8.29 33.64 7.52C33.83 7.06 34.06 6.67 34.28 6.35C34.76 5.7 35.7 5.59 36.47 5.94L38.53 6.88C41.12 8.05 42.93 10.36 43.08 13.08C43.26 16.64 42.84 23.09 42.17 32.58L42.16 32.58C42.16 37.34 38.3 41.2 33.54 41.2C28.88 41.2 25.08 37.51 24.92 32.89C24.31 32.69 23.67 32.58 23 32.58C22.32 32.58 21.68 32.69 21.07 32.89C20.91 37.51 17.11 41.2 12.45 41.2C7.69 41.2 3.83 37.34 3.83 32.58L3.82 32.58C3.15 23.09 2.73 16.64 2.91 13.08C3.06 10.36 4.87 8.05 7.46 6.88Z" fill="#576684" fill-opacity="1.000000" fill-rule="nonzero"/>
	</g>
	<g filter="url(#filter_26_418_dd)">
		<circle id="Ellipse 106" cx="12.457031" cy="32.583984" r="4.791666" fill="#D0E2F3" fill-opacity="1.000000"/>
	</g>
	<g filter="url(#filter_26_419_dd)">
		<circle id="Ellipse 107" cx="33.541016" cy="32.583984" r="4.791666" fill="#D0E2F3" fill-opacity="1.000000"/>
	</g>
</svg>
