<svg width="122.611328" height="124.376953" viewBox="0 0 122.611 124.377" fill="none" xmlns="http://www.w3.org/2000/svg" xmlns:xlink="http://www.w3.org/1999/xlink">
	<desc>
			Created with Pixso.
	</desc>
	<defs>
		<filter id="filter_26_1410_dd" x="2.802734" y="39.021484" width="63.794922" height="63.861328" filterUnits="userSpaceOnUse" color-interpolation-filters="sRGB">
			<feFlood flood-opacity="0" result="BackgroundImageFix"/>
			<feBlend mode="normal" in="SourceGraphic" in2="BackgroundImageFix" result="shape"/>
			<feColorMatrix in="SourceAlpha" type="matrix" values="0 0 0 0 0 0 0 0 0 0 0 0 0 0 0 0 0 0 127 0" result="hardAlpha"/>
			<feOffset dx="1.46273" dy="1.46273"/>
			<feGaussianBlur stdDeviation="0.487575"/>
			<feComposite in2="hardAlpha" operator="arithmetic" k2="-1" k3="1"/>
			<feColorMatrix type="matrix" values="0 0 0 0 0 0 0 0 0 0.36863 0 0 0 0 0.74118 0 0 0 0.5 0"/>
			<feBlend mode="normal" in2="shape" result="effect_innerShadow_1"/>
		</filter>
		<filter id="filter_26_1415_dd" x="12.199219" y="58.470703" width="44.033203" height="25.013672" filterUnits="userSpaceOnUse" color-interpolation-filters="sRGB">
			<feFlood flood-opacity="0" result="BackgroundImageFix"/>
			<feBlend mode="normal" in="SourceGraphic" in2="BackgroundImageFix" result="shape"/>
			<feColorMatrix in="SourceAlpha" type="matrix" values="0 0 0 0 0 0 0 0 0 0 0 0 0 0 0 0 0 0 127 0" result="hardAlpha"/>
			<feOffset dx="1.08115" dy="1.08115"/>
			<feGaussianBlur stdDeviation="0.720764"/>
			<feComposite in2="hardAlpha" operator="arithmetic" k2="-1" k3="1"/>
			<feColorMatrix type="matrix" values="0 0 0 0 0.53333 0 0 0 0 0.64706 0 0 0 0 0.74902 0 0 0 0.6 0"/>
			<feBlend mode="normal" in2="shape" result="effect_innerShadow_1"/>
			<feColorMatrix in="SourceAlpha" type="matrix" values="0 0 0 0 0 0 0 0 0 0 0 0 0 0 0 0 0 0 127 0" result="hardAlpha"/>
			<feOffset dx="-1.08115" dy="-2.16229"/>
			<feGaussianBlur stdDeviation="0.720764"/>
			<feComposite in2="hardAlpha" operator="arithmetic" k2="-1" k3="1"/>
			<feColorMatrix type="matrix" values="0 0 0 0 0.53333 0 0 0 0 0.64706 0 0 0 0 0.74902 0 0 0 0.3 0"/>
			<feBlend mode="normal" in2="effect_innerShadow_1" result="effect_innerShadow_2"/>
			<feColorMatrix in="SourceAlpha" type="matrix" values="0 0 0 0 0 0 0 0 0 0 0 0 0 0 0 0 0 0 127 0" result="hardAlpha"/>
			<feOffset dx="-1.08115" dy="-2.16229"/>
			<feGaussianBlur stdDeviation="1.08115"/>
			<feComposite in2="hardAlpha" operator="arithmetic" k2="-1" k3="1"/>
			<feColorMatrix type="matrix" values="0 0 0 0 1 0 0 0 0 1 0 0 0 0 1 0 0 0 0.4 0"/>
			<feBlend mode="normal" in2="effect_innerShadow_2" result="effect_innerShadow_3"/>
		</filter>
		<clipPath id="clip26_1408">
			<rect id="wildberries_______ (1)" width="58.973816" height="59.043465" transform="translate(0.000000 47.751953) rotate(-11.255381)" fill="white" fill-opacity="0"/>
		</clipPath>
		<filter id="filter_26_1417_dd" x="53.830078" y="2.638672" width="63.109375" height="63.222656" filterUnits="userSpaceOnUse" color-interpolation-filters="sRGB">
			<feFlood flood-opacity="0" result="BackgroundImageFix"/>
			<feBlend mode="normal" in="SourceGraphic" in2="BackgroundImageFix" result="shape"/>
			<feColorMatrix in="SourceAlpha" type="matrix" values="0 0 0 0 0 0 0 0 0 0 0 0 0 0 0 0 0 0 127 0" result="hardAlpha"/>
			<feOffset dx="1.46273" dy="1.46273"/>
			<feGaussianBlur stdDeviation="0.487575"/>
			<feComposite in2="hardAlpha" operator="arithmetic" k2="-1" k3="1"/>
			<feColorMatrix type="matrix" values="0 0 0 0 0 0 0 0 0 0.36863 0 0 0 0 0.74118 0 0 0 0.5 0"/>
			<feBlend mode="normal" in2="shape" result="effect_innerShadow_1"/>
		</filter>
		<filter id="filter_26_1418_dd" x="53.583984" y="15.810547" width="61.664062" height="35.673828" filterUnits="userSpaceOnUse" color-interpolation-filters="sRGB">
			<feFlood flood-opacity="0" result="BackgroundImageFix"/>
			<feBlend mode="normal" in="SourceGraphic" in2="BackgroundImageFix" result="shape"/>
			<feColorMatrix in="SourceAlpha" type="matrix" values="0 0 0 0 0 0 0 0 0 0 0 0 0 0 0 0 0 0 127 0" result="hardAlpha"/>
			<feOffset dx="1.08115" dy="1.08115"/>
			<feGaussianBlur stdDeviation="0.720764"/>
			<feComposite in2="hardAlpha" operator="arithmetic" k2="-1" k3="1"/>
			<feColorMatrix type="matrix" values="0 0 0 0 0.53333 0 0 0 0 0.64706 0 0 0 0 0.74902 0 0 0 0.6 0"/>
			<feBlend mode="normal" in2="shape" result="effect_innerShadow_1"/>
			<feColorMatrix in="SourceAlpha" type="matrix" values="0 0 0 0 0 0 0 0 0 0 0 0 0 0 0 0 0 0 127 0" result="hardAlpha"/>
			<feOffset dx="-1.08115" dy="-2.16229"/>
			<feGaussianBlur stdDeviation="0.720764"/>
			<feComposite in2="hardAlpha" operator="arithmetic" k2="-1" k3="1"/>
			<feColorMatrix type="matrix" values="0 0 0 0 0.53333 0 0 0 0 0.64706 0 0 0 0 0.74902 0 0 0 0.3 0"/>
			<feBlend mode="normal" in2="effect_innerShadow_1" result="effect_innerShadow_2"/>
			<feColorMatrix in="SourceAlpha" type="matrix" values="0 0 0 0 0 0 0 0 0 0 0 0 0 0 0 0 0 0 127 0" result="hardAlpha"/>
			<feOffset dx="-1.08115" dy="-2.16229"/>
			<feGaussianBlur stdDeviation="1.08115"/>
			<feComposite in2="hardAlpha" operator="arithmetic" k2="-1" k3="1"/>
			<feColorMatrix type="matrix" values="0 0 0 0 1 0 0 0 0 1 0 0 0 0 1 0 0 0 0.4 0"/>
			<feBlend mode="normal" in2="effect_innerShadow_2" result="effect_innerShadow_3"/>
		</filter>
		<clipPath id="clip26_1416">
			<rect id="ya_market_ 2" width="59.043461" height="59.043461" transform="translate(61.595703 0.000000) rotate(10.148775)" fill="white" fill-opacity="0"/>
		</clipPath>
		<filter id="filter_26_1425_dd" x="55.248047" y="56.931641" width="66.630859" height="66.630859" filterUnits="userSpaceOnUse" color-interpolation-filters="sRGB">
			<feFlood flood-opacity="0" result="BackgroundImageFix"/>
			<feBlend mode="normal" in="SourceGraphic" in2="BackgroundImageFix" result="shape"/>
			<feColorMatrix in="SourceAlpha" type="matrix" values="0 0 0 0 0 0 0 0 0 0 0 0 0 0 0 0 0 0 127 0" result="hardAlpha"/>
			<feOffset dx="1.46273" dy="1.46273"/>
			<feGaussianBlur stdDeviation="0.487575"/>
			<feComposite in2="hardAlpha" operator="arithmetic" k2="-1" k3="1"/>
			<feColorMatrix type="matrix" values="0 0 0 0 0 0 0 0 0 0.36863 0 0 0 0 0.74118 0 0 0 0.5 0"/>
			<feBlend mode="normal" in2="shape" result="effect_innerShadow_1"/>
		</filter>
		<filter id="filter_26_1426_dd" x="75.660156" y="83.980469" width="50.724609" height="49.824219" filterUnits="userSpaceOnUse" color-interpolation-filters="sRGB">
			<feFlood flood-opacity="0" result="BackgroundImageFix"/>
			<feBlend mode="normal" in="SourceGraphic" in2="BackgroundImageFix" result="shape"/>
			<feColorMatrix in="SourceAlpha" type="matrix" values="0 0 0 0 0 0 0 0 0 0 0 0 0 0 0 0 0 0 127 0" result="hardAlpha"/>
			<feOffset dx="1.46273" dy="1.46273"/>
			<feGaussianBlur stdDeviation="0.487575"/>
			<feComposite in2="hardAlpha" operator="arithmetic" k2="-1" k3="1"/>
			<feColorMatrix type="matrix" values="0 0 0 0 0 0 0 0 0 0.36863 0 0 0 0 0.74118 0 0 0 0.5 0"/>
			<feBlend mode="normal" in2="shape" result="effect_innerShadow_1"/>
		</filter>
		<filter id="filter_26_1427_dd" x="56.355469" y="85.427734" width="13.666016" height="14.080078" filterUnits="userSpaceOnUse" color-interpolation-filters="sRGB">
			<feFlood flood-opacity="0" result="BackgroundImageFix"/>
			<feBlend mode="normal" in="SourceGraphic" in2="BackgroundImageFix" result="shape"/>
			<feColorMatrix in="SourceAlpha" type="matrix" values="0 0 0 0 0 0 0 0 0 0 0 0 0 0 0 0 0 0 127 0" result="hardAlpha"/>
			<feOffset dx="1.08115" dy="1.08115"/>
			<feGaussianBlur stdDeviation="0.720764"/>
			<feComposite in2="hardAlpha" operator="arithmetic" k2="-1" k3="1"/>
			<feColorMatrix type="matrix" values="0 0 0 0 0.53333 0 0 0 0 0.64706 0 0 0 0 0.74902 0 0 0 0.6 0"/>
			<feBlend mode="normal" in2="shape" result="effect_innerShadow_1"/>
			<feColorMatrix in="SourceAlpha" type="matrix" values="0 0 0 0 0 0 0 0 0 0 0 0 0 0 0 0 0 0 127 0" result="hardAlpha"/>
			<feOffset dx="-1.08115" dy="-2.16229"/>
			<feGaussianBlur stdDeviation="0.720764"/>
			<feComposite in2="hardAlpha" operator="arithmetic" k2="-1" k3="1"/>
			<feColorMatrix type="matrix" values="0 0 0 0 0.53333 0 0 0 0 0.64706 0 0 0 0 0.74902 0 0 0 0.3 0"/>
			<feBlend mode="normal" in2="effect_innerShadow_1" result="effect_innerShadow_2"/>
			<feColorMatrix in="SourceAlpha" type="matrix" values="0 0 0 0 0 0 0 0 0 0 0 0 0 0 0 0 0 0 127 0" result="hardAlpha"/>
			<feOffset dx="-1.08115" dy="-2.16229"/>
			<feGaussianBlur stdDeviation="1.08115"/>
			<feComposite in2="hardAlpha" operator="arithmetic" k2="-1" k3="1"/>
			<feColorMatrix type="matrix" values="0 0 0 0 1 0 0 0 0 1 0 0 0 0 1 0 0 0 0.4 0"/>
			<feBlend mode="normal" in2="effect_innerShadow_2" result="effect_innerShadow_3"/>
		</filter>
		<filter id="filter_26_1428_dd" x="71.603516" y="83.681641" width="13.082031" height="14.468750" filterUnits="userSpaceOnUse" color-interpolation-filters="sRGB">
			<feFlood flood-opacity="0" result="BackgroundImageFix"/>
			<feBlend mode="normal" in="SourceGraphic" in2="BackgroundImageFix" result="shape"/>
			<feColorMatrix in="SourceAlpha" type="matrix" values="0 0 0 0 0 0 0 0 0 0 0 0 0 0 0 0 0 0 127 0" result="hardAlpha"/>
			<feOffset dx="1.08115" dy="1.08115"/>
			<feGaussianBlur stdDeviation="0.720764"/>
			<feComposite in2="hardAlpha" operator="arithmetic" k2="-1" k3="1"/>
			<feColorMatrix type="matrix" values="0 0 0 0 0.53333 0 0 0 0 0.64706 0 0 0 0 0.74902 0 0 0 0.6 0"/>
			<feBlend mode="normal" in2="shape" result="effect_innerShadow_1"/>
			<feColorMatrix in="SourceAlpha" type="matrix" values="0 0 0 0 0 0 0 0 0 0 0 0 0 0 0 0 0 0 127 0" result="hardAlpha"/>
			<feOffset dx="-1.08115" dy="-2.16229"/>
			<feGaussianBlur stdDeviation="0.720764"/>
			<feComposite in2="hardAlpha" operator="arithmetic" k2="-1" k3="1"/>
			<feColorMatrix type="matrix" values="0 0 0 0 0.53333 0 0 0 0 0.64706 0 0 0 0 0.74902 0 0 0 0.3 0"/>
			<feBlend mode="normal" in2="effect_innerShadow_1" result="effect_innerShadow_2"/>
			<feColorMatrix in="SourceAlpha" type="matrix" values="0 0 0 0 0 0 0 0 0 0 0 0 0 0 0 0 0 0 127 0" result="hardAlpha"/>
			<feOffset dx="-1.08115" dy="-2.16229"/>
			<feGaussianBlur stdDeviation="1.08115"/>
			<feComposite in2="hardAlpha" operator="arithmetic" k2="-1" k3="1"/>
			<feColorMatrix type="matrix" values="0 0 0 0 1 0 0 0 0 1 0 0 0 0 1 0 0 0 0.4 0"/>
			<feBlend mode="normal" in2="effect_innerShadow_2" result="effect_innerShadow_3"/>
		</filter>
		<filter id="filter_26_1429_dd" x="106.066406" y="80.472656" width="13.855469" height="14.250000" filterUnits="userSpaceOnUse" color-interpolation-filters="sRGB">
			<feFlood flood-opacity="0" result="BackgroundImageFix"/>
			<feBlend mode="normal" in="SourceGraphic" in2="BackgroundImageFix" result="shape"/>
			<feColorMatrix in="SourceAlpha" type="matrix" values="0 0 0 0 0 0 0 0 0 0 0 0 0 0 0 0 0 0 127 0" result="hardAlpha"/>
			<feOffset dx="1.08115" dy="1.08115"/>
			<feGaussianBlur stdDeviation="0.720764"/>
			<feComposite in2="hardAlpha" operator="arithmetic" k2="-1" k3="1"/>
			<feColorMatrix type="matrix" values="0 0 0 0 0.53333 0 0 0 0 0.64706 0 0 0 0 0.74902 0 0 0 0.6 0"/>
			<feBlend mode="normal" in2="shape" result="effect_innerShadow_1"/>
			<feColorMatrix in="SourceAlpha" type="matrix" values="0 0 0 0 0 0 0 0 0 0 0 0 0 0 0 0 0 0 127 0" result="hardAlpha"/>
			<feOffset dx="-1.08115" dy="-2.16229"/>
			<feGaussianBlur stdDeviation="0.720764"/>
			<feComposite in2="hardAlpha" operator="arithmetic" k2="-1" k3="1"/>
			<feColorMatrix type="matrix" values="0 0 0 0 0.53333 0 0 0 0 0.64706 0 0 0 0 0.74902 0 0 0 0.3 0"/>
			<feBlend mode="normal" in2="effect_innerShadow_1" result="effect_innerShadow_2"/>
			<feColorMatrix in="SourceAlpha" type="matrix" values="0 0 0 0 0 0 0 0 0 0 0 0 0 0 0 0 0 0 127 0" result="hardAlpha"/>
			<feOffset dx="-1.08115" dy="-2.16229"/>
			<feGaussianBlur stdDeviation="1.08115"/>
			<feComposite in2="hardAlpha" operator="arithmetic" k2="-1" k3="1"/>
			<feColorMatrix type="matrix" values="0 0 0 0 1 0 0 0 0 1 0 0 0 0 1 0 0 0 0.4 0"/>
			<feBlend mode="normal" in2="effect_innerShadow_2" result="effect_innerShadow_3"/>
		</filter>
		<filter id="filter_26_1430_dd" x="85.025391" y="82.345703" width="19.273438" height="14.109375" filterUnits="userSpaceOnUse" color-interpolation-filters="sRGB">
			<feFlood flood-opacity="0" result="BackgroundImageFix"/>
			<feBlend mode="normal" in="SourceGraphic" in2="BackgroundImageFix" result="shape"/>
			<feColorMatrix in="SourceAlpha" type="matrix" values="0 0 0 0 0 0 0 0 0 0 0 0 0 0 0 0 0 0 127 0" result="hardAlpha"/>
			<feOffset dx="1.08115" dy="1.08115"/>
			<feGaussianBlur stdDeviation="0.720764"/>
			<feComposite in2="hardAlpha" operator="arithmetic" k2="-1" k3="1"/>
			<feColorMatrix type="matrix" values="0 0 0 0 0.53333 0 0 0 0 0.64706 0 0 0 0 0.74902 0 0 0 0.6 0"/>
			<feBlend mode="normal" in2="shape" result="effect_innerShadow_1"/>
			<feColorMatrix in="SourceAlpha" type="matrix" values="0 0 0 0 0 0 0 0 0 0 0 0 0 0 0 0 0 0 127 0" result="hardAlpha"/>
			<feOffset dx="-1.08115" dy="-2.16229"/>
			<feGaussianBlur stdDeviation="0.720764"/>
			<feComposite in2="hardAlpha" operator="arithmetic" k2="-1" k3="1"/>
			<feColorMatrix type="matrix" values="0 0 0 0 0.53333 0 0 0 0 0.64706 0 0 0 0 0.74902 0 0 0 0.3 0"/>
			<feBlend mode="normal" in2="effect_innerShadow_1" result="effect_innerShadow_2"/>
			<feColorMatrix in="SourceAlpha" type="matrix" values="0 0 0 0 0 0 0 0 0 0 0 0 0 0 0 0 0 0 127 0" result="hardAlpha"/>
			<feOffset dx="-1.08115" dy="-2.16229"/>
			<feGaussianBlur stdDeviation="1.08115"/>
			<feComposite in2="hardAlpha" operator="arithmetic" k2="-1" k3="1"/>
			<feColorMatrix type="matrix" values="0 0 0 0 1 0 0 0 0 1 0 0 0 0 1 0 0 0 0.4 0"/>
			<feBlend mode="normal" in2="effect_innerShadow_2" result="effect_innerShadow_3"/>
		</filter>
		<clipPath id="clip26_1419">
			<rect id="ozon_ (1)" width="59.043461" height="59.043468" transform="translate(64.417969 56.199219) rotate(9.735007)" fill="white" fill-opacity="0"/>
		</clipPath>
		<linearGradient x1="16.147564" y1="98.156853" x2="52.940594" y2="44.180763" id="paint_linear_26_1410_0" gradientUnits="userSpaceOnUse">
			<stop stop-color="#A42C91"/>
			<stop offset="1.000000" stop-color="#522A88"/>
		</linearGradient>
		<linearGradient x1="2.750942" y1="47.209534" x2="67.249954" y2="94.574860" id="paint_linear_26_1410_1" gradientUnits="userSpaceOnUse">
			<stop stop-color="#0050EC"/>
			<stop offset="1.000000" stop-color="#39C7EC"/>
		</linearGradient>
		<linearGradient x1="64.937210" y1="1.463367" x2="106.417656" y2="67.142059" id="paint_linear_26_1417_0" gradientUnits="userSpaceOnUse">
			<stop stop-color="#0050EC"/>
			<stop offset="1.000000" stop-color="#39C7EC"/>
		</linearGradient>
		<linearGradient x1="67.201927" y1="56.628799" x2="110.531670" y2="123.968651" id="paint_linear_26_1425_0" gradientUnits="userSpaceOnUse">
			<stop stop-color="#0050EC"/>
			<stop offset="1.000000" stop-color="#39C7EC"/>
		</linearGradient>
		<linearGradient x1="86.765198" y1="82.712204" x2="122.112030" y2="141.773315" id="paint_linear_26_1426_0" gradientUnits="userSpaceOnUse">
			<stop stop-color="#0050EC"/>
			<stop offset="1.000000" stop-color="#39C7EC"/>
		</linearGradient>
	</defs>
	<rect id="wildberries_______ (1)" width="58.973816" height="59.043465" transform="translate(0.000000 47.751953) rotate(-11.255381)" fill="#FFFFFF" fill-opacity="0"/>
	<g clip-path="url(#clip26_1408)">
		<g filter="url(#filter_26_1410_dd)">
			<path id="Vector" d="M66.29 78.67L60.92 51.72C60.52 49.69 59.72 47.75 58.57 46.03C57.42 44.31 55.94 42.83 54.21 41.68C52.49 40.52 50.56 39.72 48.52 39.32C46.49 38.91 44.4 38.91 42.37 39.32L15.5 44.67C11.39 45.49 7.78 47.9 5.46 51.38C3.13 54.86 2.28 59.12 3.1 63.23L8.46 90.17C9.28 94.28 11.69 97.89 15.17 100.22C18.66 102.54 22.92 103.39 27.02 102.58L53.93 97.22C58.02 96.4 61.63 93.98 63.94 90.5C66.26 87.02 67.1 82.76 66.29 78.67Z" fill="url(#paint_linear_26_1410_0)" fill-opacity="1.000000" fill-rule="evenodd"/>
			<path id="Vector" d="M66.29 78.67L60.92 51.72C60.52 49.69 59.72 47.75 58.57 46.03C57.42 44.31 55.94 42.83 54.21 41.68C52.49 40.52 50.56 39.72 48.52 39.32C46.49 38.91 44.4 38.91 42.37 39.32L15.5 44.67C11.39 45.49 7.78 47.9 5.46 51.38C3.13 54.86 2.28 59.12 3.1 63.23L8.46 90.17C9.28 94.28 11.69 97.89 15.17 100.22C18.66 102.54 22.92 103.39 27.02 102.58L53.93 97.22C58.02 96.4 61.63 93.98 63.94 90.5C66.26 87.02 67.1 82.76 66.29 78.67Z" fill="url(#paint_linear_26_1410_1)" fill-opacity="1.000000" fill-rule="evenodd"/>
		</g>
		<mask id="mask26_1412" mask-type="alpha" maskUnits="userSpaceOnUse" x="6.888672" y="53.988281" width="56.548828" height="38.763672">
			<path id="Vector" d="M6.88 64.1L57.73 53.98L63.43 82.63L12.58 92.75L6.88 64.1Z" fill="#000000" fill-opacity="1.000000" fill-rule="evenodd"/>
		</mask>
		<path id="Vector" d="M24.96 82.76L21.35 83.48L12.19 65.55L15.48 64.89L22.43 78.96L23.79 63.24L26.66 62.66L33.91 76.67L34.94 61.02L38.25 60.36L36.65 80.43L33.04 81.15L26.26 68.08L24.98 82.76L24.96 82.76ZM52.56 67.02C53.46 67.27 54.27 67.76 54.9 68.45C55.52 69.14 55.94 69.99 56.1 70.91C56.26 71.63 56.27 72.39 56.12 73.11C55.97 73.84 55.66 74.52 55.22 75.12C54.33 76.37 52.99 77.21 51.48 77.47L43.34 79.09L39.56 60.1L47.1 58.6C48.56 58.28 50.08 58.54 51.34 59.34C51.96 59.7 52.49 60.2 52.9 60.79C53.31 61.38 53.59 62.05 53.72 62.75C53.89 63.51 53.88 64.29 53.68 65.03C53.48 65.78 53.09 66.46 52.56 67.02ZM47.69 61.53L43.25 62.41L44.24 67.39L48.65 66.51C49.32 66.38 49.9 65.99 50.27 65.43C50.65 64.87 50.79 64.18 50.66 63.52C50.52 62.86 50.13 62.27 49.57 61.9C49.01 61.52 48.32 61.39 47.66 61.52L47.69 61.53ZM45.89 75.55L50.91 74.55C51.59 74.39 52.18 73.96 52.56 73.37C52.94 72.78 53.08 72.07 52.94 71.38C52.8 70.69 52.4 70.08 51.83 69.68C51.25 69.28 50.54 69.12 49.85 69.23L44.8 70.23L45.89 75.55Z" fill="#000000" fill-opacity="1.000000" fill-rule="evenodd"/>
		<g filter="url(#filter_26_1415_dd)">
			<path id="Vector" d="M24.96 82.76L21.35 83.48L12.19 65.55L15.48 64.89L22.43 78.96L23.79 63.24L26.66 62.66L33.91 76.67L34.94 61.02L38.25 60.36L36.65 80.43L33.04 81.15L26.26 68.08L24.98 82.76L24.96 82.76ZM52.56 67.02C53.46 67.27 54.27 67.76 54.9 68.45C55.52 69.14 55.94 69.99 56.1 70.91C56.26 71.63 56.27 72.39 56.12 73.11C55.97 73.84 55.66 74.52 55.22 75.12C54.33 76.37 52.99 77.21 51.48 77.47L43.34 79.09L39.56 60.1L47.1 58.6C48.56 58.28 50.08 58.54 51.34 59.34C51.96 59.7 52.49 60.2 52.9 60.79C53.31 61.38 53.59 62.05 53.72 62.75C53.89 63.51 53.88 64.29 53.68 65.03C53.48 65.78 53.09 66.46 52.56 67.02ZM47.69 61.53L43.25 62.41L44.24 67.39L48.65 66.51C49.32 66.38 49.9 65.99 50.27 65.43C50.65 64.87 50.79 64.18 50.66 63.52C50.52 62.86 50.13 62.27 49.57 61.9C49.01 61.52 48.32 61.39 47.66 61.52L47.69 61.53ZM45.89 75.55L50.91 74.55C51.59 74.39 52.18 73.96 52.56 73.37C52.94 72.78 53.08 72.07 52.94 71.38C52.8 70.69 52.4 70.08 51.83 69.68C51.25 69.28 50.54 69.12 49.85 69.23L44.8 70.23L45.89 75.55Z" fill="#D0E2F3" fill-opacity="1.000000" fill-rule="evenodd"/>
		</g>
	</g>
	<rect id="ya_market_ 2" width="59.043461" height="59.043461" transform="translate(61.595703 0.000000) rotate(10.148775)" fill="#FFFFFF" fill-opacity="0"/>
	<g clip-path="url(#clip26_1416)">
		<g filter="url(#filter_26_1417_dd)">
			<path id="Vector" d="M60.47 11.11C61.47 5.52 66.81 1.8 72.41 2.8L108.46 9.25C114.05 10.25 117.77 15.6 116.77 21.19L110.29 57.38C109.29 62.97 103.95 66.7 98.35 65.69L62.3 59.24C56.71 58.24 52.99 52.9 53.99 47.3L60.47 11.11Z" fill="url(#paint_linear_26_1417_0)" fill-opacity="1.000000" fill-rule="nonzero"/>
		</g>
		<g filter="url(#filter_26_1418_dd)">
			<path id="Vector" d="M83.81 23.65L74.13 18.39L56.41 34.09L53.58 49.88L71.85 33.62L67.69 46.2L77.5 51.48L93.38 34.19C92.13 37.78 89.64 45.95 97.66 49.93C102.4 52.28 107.58 50.71 112.59 47.29L115.24 32.45C109.99 37.82 105.14 41.48 103.13 40.54C99.75 38.95 104.93 28.48 108.27 21.73L108.32 21.62L97.46 15.81L79.86 35.06L83.81 23.65Z" fill="#D0E2F3" fill-opacity="1.000000" fill-rule="nonzero"/>
		</g>
	</g>
	<rect id="ozon_ (1)" width="59.043461" height="59.043468" transform="translate(64.417969 56.199219) rotate(9.735007)" fill="#FFFFFF" fill-opacity="0"/>
	<g clip-path="url(#clip26_1419)">
		<mask id="mask26_1422" mask-type="alpha" maskUnits="userSpaceOnUse" x="54.474609" y="56.158203" width="68.177734" height="68.177734">
			<path id="Vector" d="M76.79 58.27L110.31 64.02C117.1 65.18 121.7 71.65 120.53 78.47L114.78 111.99C113.62 118.78 107.16 123.39 100.33 122.21L66.81 116.46C60.02 115.3 55.41 108.84 56.59 102.01L62.34 68.49C63.5 61.7 70 57.1 76.79 58.27Z" fill="#000000" fill-opacity="1.000000" fill-rule="nonzero"/>
		</mask>
		<g mask="url(#mask26_1422)">
			<g filter="url(#filter_26_1425_dd)">
				<path id="Vector" d="M69.38 57L117.72 65.29C120.44 65.76 122.27 68.34 121.8 71.07L113.51 119.4C113.04 122.12 110.46 123.95 107.74 123.49L59.4 115.19C56.68 114.73 54.85 112.14 55.32 109.42L63.61 61.08C64.08 58.36 66.66 56.53 69.38 57Z" fill="url(#paint_linear_26_1425_0)" fill-opacity="1.000000" fill-rule="evenodd"/>
			</g>
			<g filter="url(#filter_26_1426_dd)">
				<path id="Vector" d="M88.11 90.29L87.83 86.81L94.15 83.98L100.82 85.6L101.27 89.03L126.38 127.49L75.66 133.8L88.11 90.29Z" fill="#F91155" fill-opacity="1.000000" fill-rule="evenodd"/>
				<path id="Vector" d="M88.11 90.29L87.83 86.81L94.15 83.98L100.82 85.6L101.27 89.03L126.38 127.49L75.66 133.8L88.11 90.29Z" fill="url(#paint_linear_26_1426_0)" fill-opacity="1.000000" fill-rule="evenodd"/>
			</g>
			<g filter="url(#filter_26_1427_dd)">
				<path id="Vector" d="M63.99 96.14C61.66 96.66 59.47 94.8 59.54 92.3C59.58 90.63 60.76 89.15 62.38 88.79C64.7 88.27 66.9 90.12 66.84 92.59C66.78 94.34 65.57 95.77 63.99 96.14ZM63.23 85.42C58.89 85.4 55.64 89.39 56.48 93.81C57.08 97.07 59.91 99.47 63.13 99.5C67.48 99.53 70.72 95.53 69.88 91.12C69.24 87.89 66.42 85.45 63.23 85.42Z" fill="#D0E2F3" fill-opacity="1.000000" fill-rule="evenodd"/>
			</g>
			<g filter="url(#filter_26_1428_dd)">
				<path id="Vector" d="M73.07 84.63C72.06 84.74 71.37 85.7 71.67 86.75C71.9 87.5 72.66 87.96 73.43 87.89L77.9 87.46L71.79 97.43C71.58 97.75 71.87 98.16 72.23 98.15L83.15 97.14C83.92 97.08 84.58 96.47 84.67 95.69C84.78 94.63 83.92 93.76 82.91 93.87L77.47 94.37L83.58 84.4C83.79 84.07 83.51 83.63 83.14 83.68L73.07 84.63Z" fill="#D0E2F3" fill-opacity="1.000000" fill-rule="evenodd"/>
			</g>
			<g filter="url(#filter_26_1429_dd)">
				<path id="Vector" d="M116.74 80.54C116.02 80.77 115.57 81.54 115.64 82.31L116.14 87.74L106.78 81.55C106.46 81.33 106.02 81.57 106.07 81.98L107.1 93.18C107.17 93.95 107.73 94.61 108.52 94.7C109.57 94.84 110.44 93.95 110.34 92.94L109.84 87.46L119.2 93.66C119.52 93.88 119.96 93.63 119.91 93.22L118.89 81.99C118.74 80.96 117.75 80.23 116.74 80.54Z" fill="#D0E2F3" fill-opacity="1.000000" fill-rule="evenodd"/>
			</g>
			<g filter="url(#filter_26_1430_dd)">
				<path id="Vector" d="M94.02 82.4C88.71 82.88 84.7 86.43 85.04 90.28C85.42 94.14 89.98 96.88 95.29 96.39C100.61 95.91 104.61 92.36 104.27 88.51C103.9 84.65 99.33 81.91 94.02 82.4ZM94.3 85.64C97.95 85.31 100.9 87.01 101.07 88.8C101.25 90.55 98.67 92.78 95.02 93.11C91.37 93.44 88.42 91.74 88.25 89.95C88.07 88.2 90.65 86.01 94.3 85.64Z" fill="#D0E2F3" fill-opacity="1.000000" fill-rule="evenodd"/>
			</g>
		</g>
	</g>
</svg>
