<svg width="46.000000" height="46.000000" viewBox="0 0 46 46" fill="none" xmlns="http://www.w3.org/2000/svg" xmlns:xlink="http://www.w3.org/1999/xlink">
	<desc>
			Created with Pixso.
	</desc>
	<defs>
		<filter id="filter_5504_28946_dd" x="2.873047" y="2.875000" width="36.416016" height="34.500000" filterUnits="userSpaceOnUse" color-interpolation-filters="sRGB">
			<feFlood flood-opacity="0" result="BackgroundImageFix"/>
			<feBlend mode="normal" in="SourceGraphic" in2="BackgroundImageFix" result="shape"/>
			<feColorMatrix in="SourceAlpha" type="matrix" values="0 0 0 0 0 0 0 0 0 0 0 0 0 0 0 0 0 0 127 0" result="hardAlpha"/>
			<feOffset dx="1" dy="1"/>
			<feGaussianBlur stdDeviation="0.666667"/>
			<feComposite in2="hardAlpha" operator="arithmetic" k2="-1" k3="1"/>
			<feColorMatrix type="matrix" values="0 0 0 0 0.53333 0 0 0 0 0.64706 0 0 0 0 0.74902 0 0 0 0.6 0"/>
			<feBlend mode="normal" in2="shape" result="effect_innerShadow_1"/>
			<feColorMatrix in="SourceAlpha" type="matrix" values="0 0 0 0 0 0 0 0 0 0 0 0 0 0 0 0 0 0 127 0" result="hardAlpha"/>
			<feOffset dx="-1" dy="-2"/>
			<feGaussianBlur stdDeviation="0.666667"/>
			<feComposite in2="hardAlpha" operator="arithmetic" k2="-1" k3="1"/>
			<feColorMatrix type="matrix" values="0 0 0 0 0.53333 0 0 0 0 0.64706 0 0 0 0 0.74902 0 0 0 0.3 0"/>
			<feBlend mode="normal" in2="effect_innerShadow_1" result="effect_innerShadow_2"/>
			<feColorMatrix in="SourceAlpha" type="matrix" values="0 0 0 0 0 0 0 0 0 0 0 0 0 0 0 0 0 0 127 0" result="hardAlpha"/>
			<feOffset dx="-1" dy="-2"/>
			<feGaussianBlur stdDeviation="1"/>
			<feComposite in2="hardAlpha" operator="arithmetic" k2="-1" k3="1"/>
			<feColorMatrix type="matrix" values="0 0 0 0 1 0 0 0 0 1 0 0 0 0 1 0 0 0 0.4 0"/>
			<feBlend mode="normal" in2="effect_innerShadow_2" result="effect_innerShadow_3"/>
		</filter>
		<filter id="filter_5504_28947_dd" x="22.998047" y="23.960938" width="19.166016" height="19.166016" filterUnits="userSpaceOnUse" color-interpolation-filters="sRGB">
			<feFlood flood-opacity="0" result="BackgroundImageFix"/>
			<feBlend mode="normal" in="SourceGraphic" in2="BackgroundImageFix" result="shape"/>
			<feColorMatrix in="SourceAlpha" type="matrix" values="0 0 0 0 0 0 0 0 0 0 0 0 0 0 0 0 0 0 127 0" result="hardAlpha"/>
			<feOffset dx="1.35294" dy="1.35294"/>
			<feGaussianBlur stdDeviation="1.35294"/>
			<feComposite in2="hardAlpha" operator="arithmetic" k2="-1" k3="1"/>
			<feColorMatrix type="matrix" values="0 0 0 0 0 0 0 0 0 0.36863 0 0 0 0 0.74118 0 0 0 0.4 0"/>
			<feBlend mode="normal" in2="shape" result="effect_innerShadow_1"/>
		</filter>
		<filter id="filter_5504_28948_dd" x="22.998047" y="23.960938" width="19.166016" height="19.166016" filterUnits="userSpaceOnUse" color-interpolation-filters="sRGB">
			<feFlood flood-opacity="0" result="BackgroundImageFix"/>
			<feBlend mode="normal" in="SourceGraphic" in2="BackgroundImageFix" result="shape"/>
			<feColorMatrix in="SourceAlpha" type="matrix" values="0 0 0 0 0 0 0 0 0 0 0 0 0 0 0 0 0 0 127 0" result="hardAlpha"/>
			<feOffset dx="1.35294" dy="1.35294"/>
			<feGaussianBlur stdDeviation="0.45098"/>
			<feComposite in2="hardAlpha" operator="arithmetic" k2="-1" k3="1"/>
			<feColorMatrix type="matrix" values="0 0 0 0 0 0 0 0 0 0.36863 0 0 0 0 0.74118 0 0 0 0.5 0"/>
			<feBlend mode="normal" in2="shape" result="effect_innerShadow_1"/>
		</filter>
	</defs>
	<g filter="url(#filter_5504_28946_dd)">
		<path d="M11.86 2.89C13.62 2.75 15.33 3.49 16.49 4.84L18.11 6.72C18.84 7.57 19.9 8.06 21.01 8.06L33.61 8.06C36.6 8.06 39.09 10.36 39.19 13.37C39.25 15.21 39.28 17.39 39.28 19.96C39.28 26.73 39.03 30.75 38.8 33.02C38.63 34.69 37.53 35.99 35.89 36.32C33.42 36.8 28.88 37.37 21.08 37.37C13.28 37.37 8.73 36.8 6.26 36.32C4.63 35.99 3.52 34.69 3.35 33.02C3.12 30.75 2.87 26.73 2.87 19.96C2.87 13.2 3.12 9.18 3.35 6.91C3.52 5.24 4.63 3.94 6.27 3.61C7.53 3.36 9.34 3.09 11.86 2.89Z" fill="#ACB4C9" fill-opacity="1.000000" fill-rule="evenodd"/>
	</g>
	<g filter="url(#filter_5504_28947_dd)">
		<g filter="url(#filter_5504_28948_dd)">
			<path d="M23.18 27.39C23.32 25.8 24.3 24.54 25.88 24.32C27.26 24.12 29.37 23.96 32.58 23.96C35.78 23.96 37.9 24.12 39.27 24.32C40.85 24.54 41.83 25.8 41.97 27.39C42.07 28.52 42.16 29.99 42.16 31.62C42.16 35.95 39.88 40 36.03 41.98C34.75 42.64 33.49 43.12 32.58 43.12C31.66 43.12 30.41 42.64 29.12 41.98C25.28 40 22.99 35.95 22.99 31.62C22.99 29.99 23.08 28.52 23.18 27.39Z" fill="#576684" fill-opacity="1.000000" fill-rule="evenodd"/>
		</g>
		<path d="M37.93 29.46C38.39 29.94 38.46 30.69 38.09 31.24C36.19 34.05 34.48 35.92 33.47 36.92C32.93 37.46 32.11 37.53 31.5 37.07C30.63 36.41 29.32 35.27 28.06 33.62C27.71 33.16 27.7 32.52 28.01 32.03L28.45 31.33C28.84 30.72 29.66 30.6 30.16 31.11C31.36 32.29 32.35 33.5 32.35 33.5C32.35 33.5 33.8 31.43 35.93 29.11C36.37 28.63 37.13 28.63 37.58 29.11L37.93 29.46Z" fill="#ACB4C9" fill-opacity="1.000000" fill-rule="evenodd"/>
	</g>
</svg>
