<svg width="46.000000" height="46.000000" viewBox="0 0 46 46" fill="none" xmlns="http://www.w3.org/2000/svg" xmlns:xlink="http://www.w3.org/1999/xlink">
	<desc>
			Created with Pixso.
	</desc>
	<defs>
		<filter id="filter_5504_29060_dd" x="3.835938" y="3.833984" width="38.333984" height="38.333984" filterUnits="userSpaceOnUse" color-interpolation-filters="sRGB">
			<feFlood flood-opacity="0" result="BackgroundImageFix"/>
			<feBlend mode="normal" in="SourceGraphic" in2="BackgroundImageFix" result="shape"/>
			<feColorMatrix in="SourceAlpha" type="matrix" values="0 0 0 0 0 0 0 0 0 0 0 0 0 0 0 0 0 0 127 0" result="hardAlpha"/>
			<feOffset dx="1" dy="1"/>
			<feGaussianBlur stdDeviation="0.666667"/>
			<feComposite in2="hardAlpha" operator="arithmetic" k2="-1" k3="1"/>
			<feColorMatrix type="matrix" values="0 0 0 0 0.53333 0 0 0 0 0.64706 0 0 0 0 0.74902 0 0 0 0.6 0"/>
			<feBlend mode="normal" in2="shape" result="effect_innerShadow_1"/>
			<feColorMatrix in="SourceAlpha" type="matrix" values="0 0 0 0 0 0 0 0 0 0 0 0 0 0 0 0 0 0 127 0" result="hardAlpha"/>
			<feOffset dx="-1" dy="-2"/>
			<feGaussianBlur stdDeviation="0.666667"/>
			<feComposite in2="hardAlpha" operator="arithmetic" k2="-1" k3="1"/>
			<feColorMatrix type="matrix" values="0 0 0 0 0.53333 0 0 0 0 0.64706 0 0 0 0 0.74902 0 0 0 0.3 0"/>
			<feBlend mode="normal" in2="effect_innerShadow_1" result="effect_innerShadow_2"/>
			<feColorMatrix in="SourceAlpha" type="matrix" values="0 0 0 0 0 0 0 0 0 0 0 0 0 0 0 0 0 0 127 0" result="hardAlpha"/>
			<feOffset dx="-1" dy="-2"/>
			<feGaussianBlur stdDeviation="1"/>
			<feComposite in2="hardAlpha" operator="arithmetic" k2="-1" k3="1"/>
			<feColorMatrix type="matrix" values="0 0 0 0 1 0 0 0 0 1 0 0 0 0 1 0 0 0 0.4 0"/>
			<feBlend mode="normal" in2="effect_innerShadow_2" result="effect_innerShadow_3"/>
		</filter>
		<filter id="filter_5504_29061_dd" x="9.000000" y="9.000000" width="28.000000" height="29.000000" filterUnits="userSpaceOnUse" color-interpolation-filters="sRGB">
			<feFlood flood-opacity="0" result="BackgroundImageFix"/>
			<feBlend mode="normal" in="SourceGraphic" in2="BackgroundImageFix" result="shape"/>
			<feColorMatrix in="SourceAlpha" type="matrix" values="0 0 0 0 0 0 0 0 0 0 0 0 0 0 0 0 0 0 127 0" result="hardAlpha"/>
			<feOffset dx="1.35294" dy="1.35294"/>
			<feGaussianBlur stdDeviation="1.35294"/>
			<feComposite in2="hardAlpha" operator="arithmetic" k2="-1" k3="1"/>
			<feColorMatrix type="matrix" values="0 0 0 0 0 0 0 0 0 0.36863 0 0 0 0 0.74118 0 0 0 0.4 0"/>
			<feBlend mode="normal" in2="shape" result="effect_innerShadow_1"/>
		</filter>
		<linearGradient x1="10.319792" y1="8.999996" x2="35.971863" y2="38.000004" id="paint_linear_5504_29061_0" gradientUnits="userSpaceOnUse">
			<stop stop-color="#39C7EC"/>
			<stop offset="0.000100" stop-color="#39C7EC"/>
			<stop offset="1.000000" stop-color="#0050EC"/>
		</linearGradient>
	</defs>
	<g filter="url(#filter_5504_29060_dd)">
		<path d="M7.24 40.97C9.8 41.51 14.61 42.16 23 42.16C31.39 42.16 36.2 41.51 38.75 40.97C40.37 40.62 41.46 39.32 41.63 37.67C41.88 35.23 42.16 30.75 42.16 23C42.16 15.24 41.88 10.76 41.63 8.32C41.46 6.67 40.37 5.37 38.75 5.03C36.2 4.48 31.39 3.83 23 3.83C14.61 3.83 9.8 4.48 7.24 5.03C5.62 5.37 4.54 6.67 4.37 8.32C4.12 10.76 3.83 15.24 3.83 23C3.83 30.75 4.12 35.23 4.37 37.67C4.54 39.32 5.62 40.62 7.24 40.97Z" fill="#D0E2F3" fill-opacity="1.000000" fill-rule="nonzero"/>
	</g>
	<g filter="url(#filter_5504_29061_dd)">
		<path d="M23 19.55C22.01 19.55 21.09 19.92 20.39 20.61C19.69 21.3 19.3 22.2 19.3 23.17C19.3 24.14 19.69 25.05 20.39 25.74C21.09 26.42 22.01 26.8 23 26.8C23.99 26.8 24.91 26.42 25.61 25.74C26.31 25.05 26.7 24.14 26.7 23.17C26.7 22.2 26.31 21.3 25.61 20.61C25.27 20.27 24.86 20 24.41 19.82C23.97 19.64 23.49 19.55 23 19.55ZM36.62 27.18L34.46 25.37C34.57 24.75 34.62 24.12 34.62 23.5C34.62 22.87 34.57 22.24 34.46 21.63L36.62 19.82C36.79 19.68 36.9 19.5 36.96 19.29C37.01 19.09 37 18.87 36.93 18.67L36.9 18.59C36.31 16.96 35.41 15.45 34.27 14.13L34.21 14.06C34.07 13.9 33.89 13.78 33.68 13.73C33.47 13.67 33.25 13.68 33.05 13.75L30.37 14.69C29.38 13.89 28.27 13.26 27.08 12.83L26.56 10.07C26.52 9.87 26.42 9.67 26.26 9.53C26.11 9.38 25.92 9.28 25.71 9.24L25.62 9.22C23.9 8.92 22.09 8.92 20.37 9.22L20.28 9.24C20.07 9.28 19.88 9.38 19.72 9.53C19.57 9.67 19.47 9.87 19.43 10.07L18.91 12.84C17.72 13.28 16.62 13.91 15.64 14.69L12.94 13.75C12.73 13.68 12.51 13.67 12.31 13.73C12.1 13.78 11.91 13.9 11.78 14.06L11.72 14.13C10.58 15.45 9.68 16.96 9.09 18.59L9.06 18.67C8.91 19.08 9.03 19.53 9.36 19.82L11.55 21.65C11.45 22.26 11.4 22.88 11.4 23.5C11.4 24.12 11.45 24.74 11.55 25.34L9.37 27.17C9.21 27.31 9.09 27.49 9.04 27.7C8.98 27.9 8.99 28.12 9.06 28.31L9.09 28.4C9.69 30.03 10.57 31.54 11.72 32.86L11.78 32.93C11.92 33.09 12.11 33.2 12.32 33.26C12.52 33.32 12.74 33.31 12.94 33.24L15.65 32.29C16.63 33.09 17.73 33.72 18.91 34.15L19.43 36.92C19.48 37.12 19.58 37.31 19.73 37.46C19.88 37.61 20.08 37.71 20.29 37.75L20.38 37.76C22.11 38.07 23.89 38.07 25.62 37.76L25.71 37.75C25.92 37.71 26.12 37.61 26.27 37.46C26.42 37.31 26.53 37.12 26.57 36.92L27.08 34.16C28.28 33.72 29.38 33.1 30.38 32.3L33.06 33.24C33.26 33.31 33.48 33.32 33.69 33.26C33.89 33.21 34.08 33.09 34.22 32.93L34.28 32.86C35.43 31.53 36.31 30.03 36.91 28.4L36.94 28.31C37.08 27.91 36.96 27.46 36.62 27.18ZM23 28.87C19.79 28.87 17.19 26.32 17.19 23.17C17.19 20.03 19.79 17.48 23 17.48C26.21 17.48 28.81 20.03 28.81 23.17C28.81 26.32 26.21 28.87 23 28.87Z" fill="url(#paint_linear_5504_29061_0)" fill-opacity="1.000000" fill-rule="nonzero"/>
	</g>
</svg>
