<svg width="365.000000" height="164.000000" viewBox="0 0 365 164" fill="none" xmlns="http://www.w3.org/2000/svg" xmlns:xlink="http://www.w3.org/1999/xlink">
	<desc>
			Created with Pixso.
	</desc>
	<defs>
		<clipPath id="clip5504_29164">
			<rect id="агроимпекс" width="257.250000" height="49.000000" transform="translate(54.000000 58.000000)" fill="white" fill-opacity="0"/>
		</clipPath>
		<clipPath id="clip5504_29163">
			<rect id="Property 1=Variant4" width="365.000000" height="164.000000" fill="white" fill-opacity="0"/>
		</clipPath>
	</defs>
	<g clip-path="url(#clip5504_29163)">
		<rect id="агроимпекс" width="257.250000" height="49.000000" transform="translate(54.000000 58.000000)" fill="#FFFFFF" fill-opacity="0"/>
		<g clip-path="url(#clip5504_29164)">
			<mask id="mask5504_29166" mask-type="alpha" maskUnits="userSpaceOnUse" x="54.000000" y="58.000000" width="256.529297" height="49.000000">
				<path id="Vector" d="M54 58L310.52 58L310.52 107L54 107L54 58Z" fill="#000000" fill-opacity="1.000000" fill-rule="nonzero"/>
			</mask>
			<g mask="url(#mask5504_29166)">
				<path id="Vector" d="M109.6 67.41L96.41 67.41L93.1 74.01L105.38 74.01L105.38 77.77L96.01 77.77C94.76 77.78 93.57 78.28 92.7 79.17C91.82 80.06 91.32 81.25 91.32 82.5L91.32 92.78C91.31 93.4 91.43 94.02 91.67 94.59C91.91 95.16 92.26 95.67 92.7 96.11C93.13 96.56 93.64 96.91 94.21 97.16C94.78 97.4 95.39 97.52 96.01 97.51L109.6 97.51C110.85 97.5 112.04 97 112.91 96.11C113.79 95.23 114.29 94.03 114.31 92.78L114.31 72.14C114.29 70.89 113.79 69.69 112.91 68.81C112.04 67.92 110.85 67.42 109.6 67.41ZM105.38 91.04L100.19 91.04L100.19 84.38L105.38 84.38L105.38 91.04ZM147.22 67.41C146.6 67.4 146 67.52 145.43 67.77C144.86 68.01 144.35 68.37 143.93 68.82C143.48 69.24 143.13 69.76 142.89 70.33C142.64 70.9 142.52 71.52 142.53 72.14L142.53 97.58L151.48 97.58L151.48 74.02L155.78 74.02L159.05 67.41L147.22 67.41L147.22 67.41ZM177.04 67.41L163.44 67.41C162.83 67.4 162.21 67.52 161.64 67.76C161.07 68 160.56 68.36 160.14 68.81C159.69 69.24 159.33 69.76 159.09 70.33C158.85 70.9 158.73 71.52 158.74 72.14L158.74 92.78C158.76 94.03 159.26 95.22 160.14 96.11C161.02 96.99 162.2 97.49 163.44 97.51L177.04 97.51C178.28 97.5 179.46 96.99 180.34 96.11C181.21 95.22 181.71 94.03 181.72 92.79L181.72 72.13C181.74 71.51 181.62 70.9 181.38 70.33C181.14 69.76 180.79 69.24 180.34 68.81C179.92 68.36 179.41 68 178.84 67.76C178.27 67.52 177.66 67.4 177.04 67.41ZM172.8 91.04L167.61 91.04L167.61 74.02L172.8 74.02L172.8 91.04ZM193.29 58L184.4 58L184.4 64.57L193.29 64.57L193.29 58ZM193.29 67.41L184.4 67.41L184.4 97.57L193.29 97.57L193.29 67.41ZM279.41 67.41L265.82 67.41C264.57 67.42 263.38 67.92 262.51 68.81C261.62 69.69 261.12 70.89 261.11 72.14L261.11 92.78C261.12 94.04 261.63 95.23 262.51 96.12C263.38 97 264.57 97.5 265.82 97.52L279.03 97.52L282.3 91.05L270.02 91.05L270.02 87.22L270.31 87.11L279.39 87.11C280.01 87.12 280.62 87 281.19 86.76C281.76 86.52 282.27 86.17 282.7 85.72C283.14 85.28 283.49 84.76 283.72 84.17C283.95 83.59 284.05 82.97 284.03 82.35L284.03 72.14C284.04 71.52 283.92 70.9 283.68 70.33C283.45 69.76 283.09 69.24 282.65 68.81C282.23 68.37 281.73 68.02 281.17 67.78C280.62 67.54 280.02 67.41 279.41 67.41ZM275.17 74.01L275.17 80.61L269.98 80.61L269.98 73.91L275.17 73.91L275.17 74.01ZM253.19 67.41L239.6 67.41C238.35 67.42 237.16 67.92 236.28 68.81C235.4 69.69 234.9 70.89 234.89 72.14C234.89 70.85 234.77 74.01 234.77 74.01L234.77 106.91L243.68 106.91L243.68 97.58L253.07 97.58C253.69 97.58 254.3 97.45 254.87 97.2C255.44 96.96 255.96 96.6 256.39 96.16C257.27 95.25 257.75 94.04 257.74 92.78L257.74 72.14C257.77 71.53 257.68 70.91 257.47 70.34C257.25 69.77 256.92 69.25 256.49 68.81C256.07 68.36 255.56 68 254.99 67.76C254.42 67.52 253.81 67.4 253.19 67.41ZM248.83 91.04L243.64 91.04L243.64 74.02L248.83 74.02L248.83 91.04ZM310.53 67.42L301.2 67.42L297.64 74.29L294.04 67.42L284.7 67.42L292.93 82.5L284.7 97.57L294.04 97.57L297.64 90.7L301.2 97.57L310.53 97.57L302.27 82.5L310.53 67.42ZM227.37 67.41L201.72 67.41C201.1 67.4 200.49 67.52 199.92 67.76C199.35 68.01 198.84 68.36 198.41 68.82C197.97 69.25 197.62 69.76 197.38 70.33C197.14 70.91 197.02 71.52 197.03 72.14C197.03 70.85 196.91 74.01 196.91 74.01L196.91 97.58L205.82 97.58L205.82 74.01L210.05 74.01L210.05 97.58L218.94 97.58L218.94 74.01L223.18 74.01L223.18 97.58L232.14 97.58L232.14 72.14C232.15 71.52 232.03 70.9 231.79 70.33C231.55 69.76 231.2 69.25 230.76 68.82C230.32 68.35 229.8 67.99 229.21 67.75C228.63 67.5 228 67.39 227.37 67.41ZM139.84 72.07C139.83 70.88 139.38 69.73 138.56 68.86C137.75 68 136.64 67.48 135.46 67.41L121.62 67.41C120.38 67.42 119.19 67.92 118.31 68.81C117.43 69.69 116.93 70.89 116.92 72.14L116.92 92.78C116.93 94.04 117.43 95.23 118.31 96.12C119.19 97 120.38 97.5 121.62 97.52L130.98 97.52L130.98 100.35L122.05 100.35L118.75 106.93L135.28 106.93C135.9 106.94 136.51 106.82 137.08 106.58C137.65 106.35 138.16 106 138.59 105.55C139.04 105.12 139.39 104.61 139.63 104.04C139.87 103.46 139.98 102.85 139.97 102.23L139.97 73.95C139.97 73.95 139.84 70.78 139.84 72.07L139.84 72.07ZM131.03 91.04L125.84 91.04L125.84 74.02L131.03 74.02L131.03 91.04Z" fill="#9EAABC" fill-opacity="1.000000" fill-rule="nonzero"/>
				<path id="Vector" d="M86.1 67.32C86.1 67.32 64.72 65.79 59.46 71.41C54.2 77.02 53.86 86.1 54 92.78C54 92.78 65.03 80.33 73.68 76.57C73.68 76.57 60.78 88.17 55.52 96.71L58.34 97.29C60.69 97.77 63.09 97.99 65.5 97.93C71.31 97.76 78.23 96.66 82 91.72C86.25 86.17 85.98 78.81 86 72.19C86.03 71.75 86.1 67.32 86.1 67.32L86.1 67.32Z" fill="#9EAABC" fill-opacity="1.000000" fill-rule="nonzero"/>
			</g>
		</g>
	</g>
</svg>
