<svg width="365.000000" height="164.000000" viewBox="0 0 365 164" fill="none" xmlns="http://www.w3.org/2000/svg" xmlns:xlink="http://www.w3.org/1999/xlink">
	<desc>
			Created with Pixso.
	</desc>
	<defs>
		<clipPath id="clip5504_29180">
			<rect id="logo (1)" width="235.500000" height="75.000000" transform="translate(65.000000 45.000000)" fill="white" fill-opacity="0"/>
		</clipPath>
		<clipPath id="clip5504_29179">
			<rect id="Property 1=Variant5" width="365.000000" height="164.000000" fill="white" fill-opacity="0"/>
		</clipPath>
	</defs>
	<g clip-path="url(#clip5504_29179)">
		<rect id="logo (1)" width="235.500000" height="75.000000" transform="translate(65.000000 45.000000)" fill="#FFFFFF" fill-opacity="0"/>
		<g clip-path="url(#clip5504_29180)">
			<path id="Vector" d="M288.52 120L76.61 120C70.14 120 65 114.85 65 108.38L65 56.61C65 50.14 70.14 45 76.61 45L288.52 45C295 45 300.14 50.14 300.14 56.61L300.14 108.38C300 114.85 294.85 120 288.52 120ZM76.61 47.5C71.61 47.5 67.5 51.61 67.5 56.61L67.5 108.38C67.5 113.38 71.61 117.5 76.61 117.5L288.52 117.5C293.52 117.5 297.64 113.38 297.64 108.38L297.64 56.61C297.64 51.61 293.52 47.5 288.52 47.5L76.61 47.5Z" fill="#9EAABC" fill-opacity="1.000000" fill-rule="nonzero"/>
			<path id="Vector" d="M155.14 65.88C152.2 69.85 149.11 73.67 145.58 77.5C141.76 81.61 137.64 85.58 132.79 89.41C129.41 92.2 125.73 95 121.61 97.79C117.2 100.88 112.5 103.67 107.2 106.76C104.55 106.76 102.05 106.76 98.97 106.76C106.17 103.08 112.05 100 117.64 96.47C122.79 93.23 127.35 90 131.47 86.76C136.47 82.79 140.73 78.82 144.7 74.85C148.23 71.02 151.47 67.2 154.41 63.08C154.7 64.11 154.85 65 155.14 65.88Z" fill="#9EAABC" fill-opacity="1.000000" fill-rule="nonzero"/>
			<path id="Vector" d="M153.52 60.29C150.44 64.41 147.05 68.23 143.38 72.06C139.26 76.17 134.7 80.14 129.41 84.11C124.55 87.79 118.97 91.47 112.79 95.14C105.88 99.26 99.11 102.64 89.85 106.91C85.73 107.06 82.5 106.76 77.94 106.91C90.73 101.76 98.82 98.38 107.64 93.67C115.44 89.56 122.2 85.44 127.94 81.32C133.38 77.5 138.08 73.53 142.2 69.41C146.02 65.58 149.55 61.61 152.64 57.64C152.94 58.53 153.23 59.41 153.52 60.29Z" fill="#9EAABC" fill-opacity="1.000000" fill-rule="nonzero"/>
			<path id="Vector" d="M152.35 79.26C152.5 81.76 152.64 84.26 152.64 86.76C152.64 89.26 152.5 91.76 152.2 94.41C152.05 96.32 151.76 98.23 151.46 100.14C151.17 102.06 150.73 104.85 150.29 106.91C149.55 106.91 148.96 106.91 148.23 106.91C148.96 103.23 149.55 98.82 149.85 95.29C150.14 93.08 150.14 90.73 150.29 88.53C150.29 86.32 150.29 84.11 150.14 81.91C150.88 81.17 151.61 80.14 152.35 79.26Z" fill="#9EAABC" fill-opacity="1.000000" fill-rule="nonzero"/>
			<path id="Vector" d="M147.64 84.85C147.79 88.82 147.79 92.79 147.35 96.91C147.05 99.85 146.61 103.67 146.02 106.76C145.29 106.76 144.55 106.76 143.67 106.76C144.11 103.96 144.55 100.73 144.7 98.08C145 94.41 145.14 90.88 145 87.2C145.88 86.61 146.76 85.73 147.64 84.85Z" fill="#9EAABC" fill-opacity="1.000000" fill-rule="nonzero"/>
			<path id="Vector" d="M156.61 73.23C156.61 73.82 156.76 74.41 156.76 75C157.05 77.79 157.2 80.58 157.2 83.38C157.2 86.17 157.05 88.96 156.76 91.76C156.61 93.97 156.17 96.32 155.88 98.67C155.44 101.02 155 104.41 154.41 106.76C153.82 106.76 153.23 106.76 152.5 106.76C153.08 104.41 153.52 101.32 153.82 99.11C154.11 96.91 154.41 94.7 154.7 92.64C155 89.85 155.14 87.05 155.14 84.26C155.14 81.46 155 78.67 154.7 75.88C155.29 75.14 155.88 74.26 156.61 73.23Z" fill="#9EAABC" fill-opacity="1.000000" fill-rule="nonzero"/>
			<path id="Vector" d="M156.47 71.47C153.82 75.29 150.88 79.11 147.64 82.79C144.11 86.76 140.29 90.58 136.02 94.55C131.47 98.67 126.32 102.79 120.29 106.91C118.38 106.91 116.32 107.05 114.11 107.05C118.23 104.41 122.05 101.91 125.58 99.26C128.82 96.91 131.91 94.41 134.7 92.05C139.26 88.23 143.23 84.26 146.76 80.29C150.14 76.61 153.08 72.79 155.88 68.82C156.02 69.55 156.32 70.58 156.47 71.47Z" fill="#9EAABC" fill-opacity="1.000000" fill-rule="nonzero"/>
			<path id="Vector" d="M177.5 80.29C174.11 80.29 171.47 79.26 169.55 77.2C167.64 75.14 166.61 72.35 166.61 68.82C166.61 65.29 167.5 62.5 169.41 60.44C171.32 58.38 173.97 57.35 177.35 57.35C180.73 57.35 183.38 58.38 185.29 60.44C187.2 62.5 188.23 65.29 188.23 68.82C188.23 72.35 187.35 75.14 185.44 77.2C183.52 79.26 180.88 80.29 177.5 80.29ZM177.5 60.73C175.73 60.73 174.41 61.47 173.38 62.79C172.35 64.11 171.76 66.17 171.76 68.67C171.76 71.17 172.35 73.23 173.38 74.55C174.41 75.88 175.73 76.61 177.5 76.61C179.26 76.61 180.58 75.88 181.61 74.55C182.64 73.08 183.23 71.17 183.23 68.67C183.23 66.17 182.79 64.11 181.61 62.79C180.58 61.47 179.26 60.73 177.5 60.73Z" fill="#9EAABC" fill-opacity="1.000000" fill-rule="nonzero"/>
			<path id="Vector" d="M211.17 79.7L206.32 79.7L206.32 61.32L199.11 61.32L198.82 65.44C198.67 67.2 198.52 68.82 198.38 70.44C198.23 72.05 197.79 73.52 197.35 74.85C196.91 76.17 196.32 77.35 195.73 77.94C195.14 78.67 194.56 79.11 193.82 79.41C193.23 79.7 192.5 79.85 191.61 79.85C191.17 79.85 190.44 79.85 189.26 79.7L189.26 75.29L189.41 75.29C189.7 75.29 190 75.29 190.14 75.29C190.73 75.29 191.17 75.29 191.47 75.14C191.76 75 192.2 74.7 192.5 74.26C192.79 73.82 193.09 73.23 193.38 72.5C193.53 71.76 193.82 70.88 193.97 69.7C194.11 68.52 194.26 67.2 194.26 65.73C194.41 64.26 194.41 61.47 194.56 57.5L211.03 57.5L211.03 79.7L211.17 79.7Z" fill="#9EAABC" fill-opacity="1.000000" fill-rule="nonzero"/>
			<path id="Vector" d="M235.58 79.7L230.88 79.7L230.88 64.26L220.88 79.7L216.32 79.7L216.32 57.79L221.02 57.79L221.02 72.2L230.43 57.79L235.58 57.79L235.58 79.7Z" fill="#9EAABC" fill-opacity="1.000000" fill-rule="nonzero"/>
			<path id="Vector" d="M262.79 79.7L258.08 79.7L258.08 64.26L253.23 74.55L250.14 74.55L245.29 64.26L245.29 79.7L240.88 79.7L240.88 57.79L246.32 57.79L251.91 69.41L257.35 57.79L262.79 57.79L262.79 79.7Z" fill="#9EAABC" fill-opacity="1.000000" fill-rule="nonzero"/>
			<path id="Vector" d="M286.91 79.7L282.2 79.7L282.2 61.32L272.93 61.32L272.93 79.7L268.08 79.7L268.08 57.79L286.91 57.79L286.91 79.7Z" fill="#9EAABC" fill-opacity="1.000000" fill-rule="nonzero"/>
			<path id="Vector" d="M180.88 106.91L178.08 106.91L178.08 92.05L169.26 92.05L169.26 106.91L166.61 106.91L166.61 89.7L180.88 89.7L180.88 106.91Z" fill="#9EAABC" fill-opacity="1.000000" fill-rule="nonzero"/>
			<path id="Vector" d="M196.32 106.91L196.32 104.99C194.85 106.02 193.67 106.61 192.79 106.91C191.91 107.2 190.88 107.35 190 107.35C188.52 107.35 187.2 106.91 186.17 105.88C185.14 104.85 184.7 103.52 184.7 102.05C184.7 99.99 185.43 98.52 186.91 97.49C188.38 96.46 191.61 95.88 196.32 95.73L196.32 95.14C196.32 93.96 196.02 93.08 195.29 92.49C194.55 91.91 193.38 91.61 191.61 91.61C190 91.61 188.23 92.05 186.32 92.79L186.17 92.79L186.17 89.99C188.08 89.41 189.85 89.26 191.61 89.26C194.11 89.26 196.02 89.7 197.2 90.73C198.38 91.61 198.97 93.08 198.97 95.14L198.97 106.91L196.32 106.91ZM196.32 102.79L196.32 97.79C192.5 97.93 190.14 98.38 188.97 99.11C187.93 99.85 187.35 100.73 187.35 101.91C187.35 103.96 188.52 104.99 191.02 104.99C192.93 104.99 194.55 104.26 196.32 102.79Z" fill="#9EAABC" fill-opacity="1.000000" fill-rule="nonzero"/>
			<path id="Vector" d="M206.76 106.02L206.76 113.38L204.11 113.38L204.11 89.85L206.76 89.85L206.76 91.76C208.67 90.14 210.58 89.41 212.5 89.41C214.55 89.41 216.17 90.14 217.35 91.76C218.52 93.38 219.11 95.44 219.11 98.23C219.11 100.88 218.38 103.08 216.91 104.85C215.44 106.61 213.67 107.35 211.47 107.35C209.85 107.35 208.23 106.91 206.76 106.02ZM206.76 93.82L206.76 103.82C208.23 104.55 209.7 104.85 211.02 104.85C212.64 104.85 213.97 104.26 215 103.08C215.88 101.91 216.46 100.29 216.46 98.23C216.46 93.97 214.85 91.76 211.76 91.76C210 91.76 208.38 92.5 206.76 93.82Z" fill="#9EAABC" fill-opacity="1.000000" fill-rule="nonzero"/>
			<path id="Vector" d="M238.23 106.91L234.7 106.91L227.64 98.97L225.88 98.97L225.88 106.91L223.23 106.91L223.23 89.7L225.88 89.7L225.88 97.2C226.91 97.2 227.79 97.05 228.38 96.61C228.97 96.32 229.41 95.73 230 94.85C230.43 93.96 230.73 93.23 231.02 92.64C231.32 92.05 231.61 91.47 232.2 91.02C232.64 90.58 233.23 90.14 233.82 90C234.41 89.7 235.29 89.7 236.17 89.7L237.35 89.7L237.35 92.05L236.02 92.05C235.29 92.05 234.55 92.2 234.11 92.64C233.67 92.93 233.23 93.67 232.94 94.55C232.2 96.17 231.32 97.35 230.29 97.93L238.23 106.91Z" fill="#9EAABC" fill-opacity="1.000000" fill-rule="nonzero"/>
			<path id="Vector" d="M248.22 107.35C245.43 107.35 243.08 106.61 241.61 105C239.99 103.38 239.25 101.32 239.25 98.38C239.25 95.58 239.99 93.38 241.46 91.61C242.93 90 244.99 89.11 247.49 89.11C249.69 89.11 251.46 89.85 252.78 91.17C254.11 92.5 254.69 94.41 254.69 97.05L254.69 98.52L242.05 98.52C242.05 100.58 242.64 102.2 243.67 103.23C244.84 104.41 246.31 104.85 248.37 104.85C250.28 104.85 252.34 104.11 254.25 102.79L254.4 102.79L254.4 105.73C251.9 106.91 249.84 107.35 248.22 107.35ZM241.9 96.61L252.05 96.61C251.9 93.23 250.43 91.47 247.34 91.47C245.72 91.47 244.55 91.91 243.67 92.79C242.64 93.67 242.05 95 241.9 96.61Z" fill="#9EAABC" fill-opacity="1.000000" fill-rule="nonzero"/>
			<path id="Vector" d="M271.17 92.05L265 92.05L265 106.91L262.35 106.91L262.35 92.05L256.17 92.05L256.17 89.7L271.17 89.7L271.17 92.05Z" fill="#9EAABC" fill-opacity="1.000000" fill-rule="nonzero"/>
			<path id="Vector" d="M284.26 106.91L284.26 104.99C282.79 106.02 281.61 106.61 280.73 106.91C279.85 107.2 278.82 107.35 277.94 107.35C276.47 107.35 275.14 106.91 274.11 105.88C273.09 104.85 272.64 103.52 272.64 102.05C272.64 99.99 273.38 98.52 274.85 97.49C276.32 96.46 279.55 95.88 284.26 95.73L284.26 95.14C284.26 93.96 283.97 93.08 283.23 92.49C282.5 91.91 281.32 91.61 279.55 91.61C277.94 91.61 276.17 92.05 274.26 92.79L274.11 92.79L274.11 89.99C276.03 89.41 277.79 89.26 279.55 89.26C282.05 89.26 283.97 89.7 285.14 90.73C286.32 91.61 286.91 93.08 286.91 95.14L286.91 106.91L284.26 106.91ZM284.26 102.79L284.26 97.79C280.44 97.93 278.09 98.38 276.91 99.11C275.88 99.85 275.29 100.73 275.29 101.91C275.29 103.96 276.47 104.99 278.97 104.99C280.73 104.99 282.5 104.26 284.26 102.79Z" fill="#9EAABC" fill-opacity="1.000000" fill-rule="nonzero"/>
			<path id="Vector" d="M287.2 83.52L166.61 83.52L166.61 85.29L287.2 85.29L287.2 83.52Z" fill="#9EAABC" fill-opacity="1.000000" fill-rule="nonzero"/>
		</g>
	</g>
</svg>
