<svg width="46.000000" height="46.000000" viewBox="0 0 46 46" fill="none" xmlns="http://www.w3.org/2000/svg" xmlns:xlink="http://www.w3.org/1999/xlink">
	<desc>
			Created with Pixso.
	</desc>
	<defs>
		<filter id="filter_26_2445_dd" x="25.398438" y="28.753906" width="15.333984" height="15.333984" filterUnits="userSpaceOnUse" color-interpolation-filters="sRGB">
			<feFlood flood-opacity="0" result="BackgroundImageFix"/>
			<feBlend mode="normal" in="SourceGraphic" in2="BackgroundImageFix" result="shape"/>
			<feColorMatrix in="SourceAlpha" type="matrix" values="0 0 0 0 0 0 0 0 0 0 0 0 0 0 0 0 0 0 127 0" result="hardAlpha"/>
			<feOffset dx="1.35294" dy="1.35294"/>
			<feGaussianBlur stdDeviation="1.35294"/>
			<feComposite in2="hardAlpha" operator="arithmetic" k2="-1" k3="1"/>
			<feColorMatrix type="matrix" values="0 0 0 0 0 0 0 0 0 0.36863 0 0 0 0 0.74118 0 0 0 0.4 0"/>
			<feBlend mode="normal" in2="shape" result="effect_innerShadow_1"/>
		</filter>
		<filter id="filter_26_2446_dd" x="4.794922" y="3.835938" width="36.417969" height="23.958984" filterUnits="userSpaceOnUse" color-interpolation-filters="sRGB">
			<feFlood flood-opacity="0" result="BackgroundImageFix"/>
			<feBlend mode="normal" in="SourceGraphic" in2="BackgroundImageFix" result="shape"/>
			<feColorMatrix in="SourceAlpha" type="matrix" values="0 0 0 0 0 0 0 0 0 0 0 0 0 0 0 0 0 0 127 0" result="hardAlpha"/>
			<feOffset dx="1.35294" dy="1.35294"/>
			<feGaussianBlur stdDeviation="0.45098"/>
			<feComposite in2="hardAlpha" operator="arithmetic" k2="-1" k3="1"/>
			<feColorMatrix type="matrix" values="0 0 0 0 0 0 0 0 0 0.36863 0 0 0 0 0.74118 0 0 0 0.5 0"/>
			<feBlend mode="normal" in2="shape" result="effect_innerShadow_1"/>
		</filter>
		<filter id="filter_26_2447_dd" x="3.837891" y="18.476562" width="12.458984" height="16.718750" filterUnits="userSpaceOnUse" color-interpolation-filters="sRGB">
			<feFlood flood-opacity="0" result="BackgroundImageFix"/>
			<feBlend mode="normal" in="SourceGraphic" in2="BackgroundImageFix" result="shape"/>
			<feColorMatrix in="SourceAlpha" type="matrix" values="0 0 0 0 0 0 0 0 0 0 0 0 0 0 0 0 0 0 127 0" result="hardAlpha"/>
			<feOffset dx="1" dy="1"/>
			<feGaussianBlur stdDeviation="0.666667"/>
			<feComposite in2="hardAlpha" operator="arithmetic" k2="-1" k3="1"/>
			<feColorMatrix type="matrix" values="0 0 0 0 0.53333 0 0 0 0 0.64706 0 0 0 0 0.74902 0 0 0 0.6 0"/>
			<feBlend mode="normal" in2="shape" result="effect_innerShadow_1"/>
			<feColorMatrix in="SourceAlpha" type="matrix" values="0 0 0 0 0 0 0 0 0 0 0 0 0 0 0 0 0 0 127 0" result="hardAlpha"/>
			<feOffset dx="-1" dy="-2"/>
			<feGaussianBlur stdDeviation="0.666667"/>
			<feComposite in2="hardAlpha" operator="arithmetic" k2="-1" k3="1"/>
			<feColorMatrix type="matrix" values="0 0 0 0 0.53333 0 0 0 0 0.64706 0 0 0 0 0.74902 0 0 0 0.3 0"/>
			<feBlend mode="normal" in2="effect_innerShadow_1" result="effect_innerShadow_2"/>
			<feColorMatrix in="SourceAlpha" type="matrix" values="0 0 0 0 0 0 0 0 0 0 0 0 0 0 0 0 0 0 127 0" result="hardAlpha"/>
			<feOffset dx="-1" dy="-2"/>
			<feGaussianBlur stdDeviation="1"/>
			<feComposite in2="hardAlpha" operator="arithmetic" k2="-1" k3="1"/>
			<feColorMatrix type="matrix" values="0 0 0 0 0.53333 0 0 0 0 0.64706 0 0 0 0 0.74902 0 0 0 0.4 0"/>
			<feBlend mode="normal" in2="effect_innerShadow_2" result="effect_innerShadow_3"/>
		</filter>
		<filter id="filter_26_2448_dd" x="11.503906" y="18.476562" width="4.791016" height="16.718750" filterUnits="userSpaceOnUse" color-interpolation-filters="sRGB">
			<feFlood flood-opacity="0" result="BackgroundImageFix"/>
			<feBlend mode="normal" in="SourceGraphic" in2="BackgroundImageFix" result="shape"/>
			<feColorMatrix in="SourceAlpha" type="matrix" values="0 0 0 0 0 0 0 0 0 0 0 0 0 0 0 0 0 0 127 0" result="hardAlpha"/>
			<feOffset dx="1.35294" dy="1.35294"/>
			<feGaussianBlur stdDeviation="0.45098"/>
			<feComposite in2="hardAlpha" operator="arithmetic" k2="-1" k3="1"/>
			<feColorMatrix type="matrix" values="0 0 0 0 0 0 0 0 0 0.36863 0 0 0 0 0.74118 0 0 0 0.5 0"/>
			<feBlend mode="normal" in2="shape" result="effect_innerShadow_1"/>
		</filter>
		<filter id="filter_26_2450_dd" x="29.712891" y="18.476562" width="12.458984" height="16.718750" filterUnits="userSpaceOnUse" color-interpolation-filters="sRGB">
			<feFlood flood-opacity="0" result="BackgroundImageFix"/>
			<feBlend mode="normal" in="SourceGraphic" in2="BackgroundImageFix" result="shape"/>
			<feColorMatrix in="SourceAlpha" type="matrix" values="0 0 0 0 0 0 0 0 0 0 0 0 0 0 0 0 0 0 127 0" result="hardAlpha"/>
			<feOffset dx="1" dy="1"/>
			<feGaussianBlur stdDeviation="0.666667"/>
			<feComposite in2="hardAlpha" operator="arithmetic" k2="-1" k3="1"/>
			<feColorMatrix type="matrix" values="0 0 0 0 0.53333 0 0 0 0 0.64706 0 0 0 0 0.74902 0 0 0 0.6 0"/>
			<feBlend mode="normal" in2="shape" result="effect_innerShadow_1"/>
			<feColorMatrix in="SourceAlpha" type="matrix" values="0 0 0 0 0 0 0 0 0 0 0 0 0 0 0 0 0 0 127 0" result="hardAlpha"/>
			<feOffset dx="-1" dy="-2"/>
			<feGaussianBlur stdDeviation="0.666667"/>
			<feComposite in2="hardAlpha" operator="arithmetic" k2="-1" k3="1"/>
			<feColorMatrix type="matrix" values="0 0 0 0 0.53333 0 0 0 0 0.64706 0 0 0 0 0.74902 0 0 0 0.3 0"/>
			<feBlend mode="normal" in2="effect_innerShadow_1" result="effect_innerShadow_2"/>
			<feColorMatrix in="SourceAlpha" type="matrix" values="0 0 0 0 0 0 0 0 0 0 0 0 0 0 0 0 0 0 127 0" result="hardAlpha"/>
			<feOffset dx="-1" dy="-2"/>
			<feGaussianBlur stdDeviation="1"/>
			<feComposite in2="hardAlpha" operator="arithmetic" k2="-1" k3="1"/>
			<feColorMatrix type="matrix" values="0 0 0 0 0.53333 0 0 0 0 0.64706 0 0 0 0 0.74902 0 0 0 0.4 0"/>
			<feBlend mode="normal" in2="effect_innerShadow_2" result="effect_innerShadow_3"/>
		</filter>
		<filter id="filter_26_2451_dd" x="29.712891" y="18.476562" width="4.791016" height="16.718750" filterUnits="userSpaceOnUse" color-interpolation-filters="sRGB">
			<feFlood flood-opacity="0" result="BackgroundImageFix"/>
			<feBlend mode="normal" in="SourceGraphic" in2="BackgroundImageFix" result="shape"/>
			<feColorMatrix in="SourceAlpha" type="matrix" values="0 0 0 0 0 0 0 0 0 0 0 0 0 0 0 0 0 0 127 0" result="hardAlpha"/>
			<feOffset dx="1.35294" dy="1.35294"/>
			<feGaussianBlur stdDeviation="1.35294"/>
			<feComposite in2="hardAlpha" operator="arithmetic" k2="-1" k3="1"/>
			<feColorMatrix type="matrix" values="0 0 0 0 0 0 0 0 0 0.36863 0 0 0 0 0.74118 0 0 0 0.4 0"/>
			<feBlend mode="normal" in2="shape" result="effect_innerShadow_1"/>
		</filter>
		<linearGradient x1="26.121185" y1="28.753904" x2="40.168755" y2="44.087242" id="paint_linear_26_2445_0" gradientUnits="userSpaceOnUse">
			<stop stop-color="#0050EC"/>
			<stop offset="1.000000" stop-color="#39C7EC"/>
		</linearGradient>
		<linearGradient x1="6.511478" y1="3.835930" x2="39.875225" y2="27.794685" id="paint_linear_26_2446_0" gradientUnits="userSpaceOnUse">
			<stop stop-color="#0050EC"/>
			<stop offset="1.000000" stop-color="#39C7EC"/>
		</linearGradient>
	</defs>
	<g filter="url(#filter_26_2445_dd)">
		<path d="M39.29 28.75C40.08 28.75 40.73 29.39 40.73 30.19C40.73 37.86 34.5 44.08 26.83 44.08C26.04 44.08 25.39 43.44 25.39 42.65C25.39 41.85 26.04 41.21 26.83 41.21C32.92 41.21 37.85 36.27 37.85 30.19C37.85 29.39 38.5 28.75 39.29 28.75Z" fill="url(#paint_linear_26_2445_0)" fill-opacity="1.000000" fill-rule="evenodd"/>
	</g>
	<g filter="url(#filter_26_2446_dd)">
		<path d="M22 9.58C16.82 9.58 12.4 13.35 11.59 18.48L10.5 25.36C10.26 26.93 8.79 28 7.22 27.75C5.65 27.51 4.58 26.03 4.83 24.47L5.91 17.58C7.16 9.66 13.99 3.83 22 3.83L23.99 3.83C32.01 3.83 38.83 9.66 40.08 17.58L41.17 24.47C41.42 26.03 40.35 27.51 38.78 27.75C37.21 28 35.74 26.93 35.49 25.36L34.41 18.48C33.6 13.35 29.18 9.58 23.99 9.58L22 9.58Z" fill="url(#paint_linear_26_2446_0)" fill-opacity="1.000000" fill-rule="evenodd"/>
	</g>
	<g filter="url(#filter_26_2447_dd)">
		<path d="M4.47 32.04C4.16 30.97 3.83 29.27 3.83 26.83C3.83 24.39 4.16 22.69 4.47 21.62C4.77 20.63 5.65 20.01 6.67 19.81C8.19 19.51 10.66 19.03 13.36 18.52C14.43 18.32 15.44 18.71 15.7 19.77C16 20.99 16.29 23.13 16.29 26.83C16.29 30.53 16 32.67 15.7 33.89C15.44 34.95 14.43 35.34 13.36 35.14C10.66 34.63 8.19 34.15 6.67 33.85C5.65 33.65 4.77 33.03 4.47 32.04Z" fill="#D0E2F3" fill-opacity="1.000000" fill-rule="nonzero"/>
	</g>
	<g filter="url(#filter_26_2448_dd)">
		<path d="M11.77 34.84C11.64 33.45 11.5 30.98 11.5 26.83C11.5 22.68 11.64 20.21 11.77 18.83C12.29 18.73 12.82 18.63 13.36 18.52C14.43 18.32 15.44 18.71 15.7 19.77C16 20.99 16.29 23.13 16.29 26.83C16.29 30.53 16 32.67 15.7 33.89C15.44 34.95 14.43 35.34 13.36 35.14C12.82 35.04 12.29 34.94 11.77 34.84Z" fill="#576684" fill-opacity="1.000000" fill-rule="nonzero"/>
	</g>
	<g filter="url(#filter_26_2450_dd)">
		<path d="M41.53 21.62C41.84 22.69 42.17 24.39 42.17 26.83C42.17 29.27 41.84 30.97 41.53 32.04C41.23 33.03 40.35 33.65 39.33 33.85C37.81 34.15 35.34 34.63 32.64 35.14C31.57 35.34 30.56 34.95 30.3 33.89C30 32.67 29.71 30.53 29.71 26.83C29.71 23.13 30 20.99 30.3 19.77C30.56 18.71 31.57 18.32 32.64 18.52C35.34 19.03 37.81 19.51 39.33 19.81C40.35 20.01 41.23 20.63 41.53 21.62Z" fill="#D0E2F3" fill-opacity="1.000000" fill-rule="nonzero"/>
	</g>
	<g filter="url(#filter_26_2451_dd)">
		<path d="M34.23 18.83C34.36 20.21 34.5 22.68 34.5 26.83C34.5 30.98 34.36 33.45 34.23 34.84C33.71 34.94 33.18 35.04 32.64 35.14C31.57 35.34 30.56 34.95 30.3 33.89C30 32.67 29.71 30.53 29.71 26.83C29.71 23.13 30 20.99 30.3 19.77C30.56 18.71 31.57 18.32 32.64 18.52C33.18 18.63 33.71 18.73 34.23 18.83Z" fill="#576684" fill-opacity="1.000000" fill-rule="nonzero"/>
	</g>
</svg>
