<svg width="46.000000" height="46.000000" viewBox="0 0 46 46" fill="none" xmlns="http://www.w3.org/2000/svg" xmlns:xlink="http://www.w3.org/1999/xlink">
	<desc>
			Created with Pixso.
	</desc>
	<defs>
		<filter id="filter_5504_28991_dd" x="3.835938" y="3.833984" width="38.333984" height="38.333984" filterUnits="userSpaceOnUse" color-interpolation-filters="sRGB">
			<feFlood flood-opacity="0" result="BackgroundImageFix"/>
			<feBlend mode="normal" in="SourceGraphic" in2="BackgroundImageFix" result="shape"/>
			<feColorMatrix in="SourceAlpha" type="matrix" values="0 0 0 0 0 0 0 0 0 0 0 0 0 0 0 0 0 0 127 0" result="hardAlpha"/>
			<feOffset dx="1" dy="1"/>
			<feGaussianBlur stdDeviation="0.666667"/>
			<feComposite in2="hardAlpha" operator="arithmetic" k2="-1" k3="1"/>
			<feColorMatrix type="matrix" values="0 0 0 0 0.53333 0 0 0 0 0.64706 0 0 0 0 0.74902 0 0 0 0.6 0"/>
			<feBlend mode="normal" in2="shape" result="effect_innerShadow_1"/>
			<feColorMatrix in="SourceAlpha" type="matrix" values="0 0 0 0 0 0 0 0 0 0 0 0 0 0 0 0 0 0 127 0" result="hardAlpha"/>
			<feOffset dx="-1" dy="-2"/>
			<feGaussianBlur stdDeviation="0.666667"/>
			<feComposite in2="hardAlpha" operator="arithmetic" k2="-1" k3="1"/>
			<feColorMatrix type="matrix" values="0 0 0 0 0.53333 0 0 0 0 0.64706 0 0 0 0 0.74902 0 0 0 0.3 0"/>
			<feBlend mode="normal" in2="effect_innerShadow_1" result="effect_innerShadow_2"/>
			<feColorMatrix in="SourceAlpha" type="matrix" values="0 0 0 0 0 0 0 0 0 0 0 0 0 0 0 0 0 0 127 0" result="hardAlpha"/>
			<feOffset dx="-1" dy="-2"/>
			<feGaussianBlur stdDeviation="1"/>
			<feComposite in2="hardAlpha" operator="arithmetic" k2="-1" k3="1"/>
			<feColorMatrix type="matrix" values="0 0 0 0 1 0 0 0 0 1 0 0 0 0 1 0 0 0 0.4 0"/>
			<feBlend mode="normal" in2="effect_innerShadow_2" result="effect_innerShadow_3"/>
		</filter>
		<filter id="filter_5504_28992_dd" x="7.000000" y="10.000000" width="32.000000" height="26.000000" filterUnits="userSpaceOnUse" color-interpolation-filters="sRGB">
			<feFlood flood-opacity="0" result="BackgroundImageFix"/>
			<feBlend mode="normal" in="SourceGraphic" in2="BackgroundImageFix" result="shape"/>
			<feColorMatrix in="SourceAlpha" type="matrix" values="0 0 0 0 0 0 0 0 0 0 0 0 0 0 0 0 0 0 127 0" result="hardAlpha"/>
			<feOffset dx="1.35294" dy="1.35294"/>
			<feGaussianBlur stdDeviation="1.35294"/>
			<feComposite in2="hardAlpha" operator="arithmetic" k2="-1" k3="1"/>
			<feColorMatrix type="matrix" values="0 0 0 0 0 0 0 0 0 0.36863 0 0 0 0 0.74118 0 0 0 0.4 0"/>
			<feBlend mode="normal" in2="shape" result="effect_innerShadow_1"/>
		</filter>
		<linearGradient x1="8.508333" y1="10.000000" x2="37.825005" y2="36.000008" id="paint_linear_5504_28992_0" gradientUnits="userSpaceOnUse">
			<stop stop-color="#0050EC"/>
			<stop offset="1.000000" stop-color="#39C7EC"/>
		</linearGradient>
	</defs>
	<g filter="url(#filter_5504_28991_dd)">
		<path d="M7.24 40.97C9.8 41.51 14.61 42.16 23 42.16C31.39 42.16 36.2 41.51 38.75 40.97C40.37 40.62 41.46 39.32 41.63 37.67C41.88 35.23 42.16 30.75 42.16 23C42.16 15.24 41.88 10.76 41.63 8.32C41.46 6.67 40.37 5.37 38.75 5.03C36.2 4.48 31.39 3.83 23 3.83C14.61 3.83 9.8 4.48 7.24 5.03C5.62 5.37 4.54 6.67 4.37 8.32C4.12 10.76 3.83 15.24 3.83 23C3.83 30.75 4.12 35.23 4.37 37.67C4.54 39.32 5.62 40.62 7.24 40.97Z" fill="#D0E2F3" fill-opacity="1.000000" fill-rule="nonzero"/>
	</g>
	<g filter="url(#filter_5504_28992_dd)">
		<path d="M23.09 11.84C23.82 9.58 26.93 9.37 28.03 11.36L28.17 11.65L32.8 22.99L36.33 22.99C37.01 22.99 37.66 23.25 38.16 23.7C38.65 24.16 38.95 24.78 38.99 25.45C39.03 26.11 38.81 26.76 38.37 27.27C37.94 27.78 37.32 28.11 36.64 28.19L36.33 28.21L31.01 28.21C30.53 28.21 30.06 28.08 29.64 27.84C29.23 27.6 28.88 27.26 28.65 26.84L28.51 26.56L25.97 20.33L21.56 34.15C20.87 36.31 17.95 36.63 16.74 34.81L16.58 34.54L13.34 28.21L9.66 28.21C8.98 28.21 8.33 27.95 7.83 27.5C7.34 27.04 7.04 26.42 7 25.75C6.96 25.09 7.18 24.43 7.62 23.92C8.05 23.41 8.67 23.09 9.35 23.01L9.66 22.99L14.98 22.99C15.88 22.99 16.72 23.43 17.22 24.16L17.39 24.45L18.42 26.47L23.09 11.84Z" fill="#121212" fill-opacity="1.000000" fill-rule="nonzero"/>
		<path d="M23.09 11.84C23.82 9.58 26.93 9.37 28.03 11.36L28.17 11.65L32.8 22.99L36.33 22.99C37.01 22.99 37.66 23.25 38.16 23.7C38.65 24.16 38.95 24.78 38.99 25.45C39.03 26.11 38.81 26.76 38.37 27.27C37.94 27.78 37.32 28.11 36.64 28.19L36.33 28.21L31.01 28.21C30.53 28.21 30.06 28.08 29.64 27.84C29.23 27.6 28.88 27.26 28.65 26.84L28.51 26.56L25.97 20.33L21.56 34.15C20.87 36.31 17.95 36.63 16.74 34.81L16.58 34.54L13.34 28.21L9.66 28.21C8.98 28.21 8.33 27.95 7.83 27.5C7.34 27.04 7.04 26.42 7 25.75C6.96 25.09 7.18 24.43 7.62 23.92C8.05 23.41 8.67 23.09 9.35 23.01L9.66 22.99L14.98 22.99C15.88 22.99 16.72 23.43 17.22 24.16L17.39 24.45L18.42 26.47L23.09 11.84Z" fill="url(#paint_linear_5504_28992_0)" fill-opacity="1.000000" fill-rule="nonzero"/>
	</g>
</svg>
