<svg width="365.000000" height="164.000000" viewBox="0 0 365 164" fill="none" xmlns="http://www.w3.org/2000/svg" xmlns:xlink="http://www.w3.org/1999/xlink">
	<desc>
			Created with Pixso.
	</desc>
	<defs>
		<clipPath id="clip5504_29225">
			<rect id="Property 1=Variant9" width="365.000000" height="164.000000" fill="white" fill-opacity="0"/>
		</clipPath>
	</defs>
	<g clip-path="url(#clip5504_29225)">
		<path id="МОДУЛЬ" d="M150.46 90.77Q152.34 86.64 152.34 81.1Q152.34 75.55 150.46 71.42Q149.24 68.72 147.26 66.82Q146.21 65.81 144.95 65.02Q141.3 62.74 135.95 62.74Q130.35 62.74 126.67 65.05Q125.19 65.97 124.02 67.19Q122.27 68.99 121.19 71.44Q119.4 75.55 119.4 81.05Q119.4 86.59 121.19 90.74Q122.31 93.32 124.16 95.19Q125.28 96.33 126.67 97.2Q130.35 99.5 135.9 99.5Q141.3 99.5 144.95 97.2Q146.25 96.38 147.32 95.33Q149.26 93.42 150.46 90.77ZM79.85 67.7L91.6 99L95.3 99L107.19 67.75L107.4 67.75Q107.3 69.34 107.16 71.9Q107.04 74.45 107.04 77.05L107.04 99L111.5 99L111.5 63.29L104.89 63.29L93.7 92.55L93.49 92.55L82.49 63.29L75.84 63.29L75.84 99L79.99 99L79.99 77.34Q79.99 74.5 79.89 71.87Q79.8 69.25 79.65 67.7L79.85 67.7ZM183.29 94.99L183.29 63.29L166.8 63.29Q166.59 67.24 165.78 71.49Q164.99 75.74 163.75 79.98Q162.5 84.2 160.87 88.05Q159.24 91.89 157.45 94.99L154.7 94.99L154.7 108.39L159 108.39L159 99L183.55 99L183.55 108.39L187.84 108.39L187.84 94.99L183.29 94.99ZM205.52 94.77Q207.15 92.39 208.75 88.85L220.15 63.29L215.4 63.29L206.79 83.09Q206.6 83.59 206.29 84.37Q206 85.14 205.79 85.69L205.6 85.69Q205.34 84.99 204.99 84.22Q204.64 83.44 204.4 82.94L194.45 63.29L189.49 63.29L203.24 89.84Q201.85 92.89 200.22 94.1Q198.6 95.3 195.79 95.3Q194.55 95.3 193.39 95.03Q192.24 94.75 191.24 94.3L191.24 98.75Q192.24 99.09 193.46 99.29Q194.7 99.5 196.1 99.5Q199.49 99.5 201.69 98.32Q203.9 97.14 205.52 94.77ZM243.7 99L248.2 99L248.2 63.29L228.64 63.29Q227.95 68.84 227.26 73.75Q226.59 78.65 226.02 82.32Q225.45 85.99 225.04 87.9Q224.7 89.69 224.2 91.52Q223.7 93.34 222.82 94.58Q222.38 95.19 221.78 95.49Q221.19 95.8 220.44 95.8Q219.65 95.8 218.94 95.63Q218.24 95.44 217.69 95.2L217.69 98.95Q218.34 99.19 219.22 99.36Q220.1 99.54 220.94 99.54Q223.49 99.54 225.07 98.35Q226.64 97.14 227.59 94.8Q228.55 92.44 229.19 89.1Q229.74 86.5 230.29 82.8Q230.84 79.1 231.39 75.02Q231.94 70.94 232.39 67.24L243.7 67.24L243.7 99ZM257.89 63.29L257.89 99L269.65 99Q276.19 99 279.39 96.13Q280.58 95.05 281.33 93.73Q282.6 91.5 282.6 88.55Q282.6 86.28 281.78 84.37Q281.56 83.87 281.29 83.39L281.29 83.38Q279.99 81.1 277.04 79.74Q274.09 78.39 269.1 78.39L262.4 78.39L262.4 63.29L257.89 63.29ZM126.99 91.72Q124.15 87.85 124.15 81.1Q124.15 74.35 127.01 70.53Q127.66 69.67 128.46 69Q131.25 66.7 135.95 66.7Q140.65 66.7 143.38 69.01Q144.17 69.68 144.79 70.53Q147.6 74.35 147.6 81.1Q147.6 87.85 144.79 91.72Q144.16 92.58 143.38 93.25Q140.63 95.59 135.9 95.59Q131.25 95.59 128.49 93.3Q127.65 92.62 126.99 91.72ZM169.76 73.9Q170.55 70.25 170.74 67.34L178.85 67.34L178.85 94.99L162.2 94.99Q163.79 92.29 165.22 88.75Q166.65 85.2 167.82 81.38Q169 77.55 169.76 73.9ZM276.79 92.47Q274.77 95.15 269.2 95.15L262.4 95.15L262.4 82.3L268.55 82.3Q273.15 82.3 275.54 83.7Q276.24 84.1 276.74 84.68Q277.95 86.09 277.95 88.55Q277.95 90.94 276.79 92.47Z" fill="#2C8AFD" fill-opacity="1.000000" fill-rule="evenodd"/>
	</g>
</svg>
